<svg width="99" height="100" xmlns="http://www.w3.org/2000/svg" xmlns:xlink="http://www.w3.org/1999/xlink" overflow="hidden"><defs><clipPath id="clip0"><rect x="932" y="104" width="99" height="100"/></clipPath></defs><g clip-path="url(#clip0)" transform="translate(-932 -104)"><path d="M981.5 105C1008.82 105 1031 126.961 1031 154 1031 181.039 1008.82 203 981.5 203 954.185 203 932 181.039 932 154 932 126.961 954.185 105 981.5 105ZM1002.44 174.176C1002.44 174.176 1002.44 174.176 1002.44 174.176 1002.58 174.176 1003.41 174.176 1003.55 174.039 1003.55 173.902 1003.55 173.627 1003.55 173.49 1003.41 173.078 1002.58 172.118 1002.16 172.118 1002.02 172.118 1002.02 172.255 1002.02 172.255 1001.88 172.667 1002.3 173.353 1002.58 173.627 1002.44 173.765 1002.44 173.902 1002.44 174.176ZM960.424 177.745C960.424 177.608 960.286 177.608 960.286 177.608 960.563 177.059 960.84 176.647 960.979 176.235 961.118 175.961 961.118 175.824 961.256 175.686 961.534 175.275 962.227 175.137 962.366 174.725 962.504 174.451 962.366 174.176 962.227 174.039 962.088 174.039 961.95 174.039 961.95 173.902 961.811 173.765 962.088 173.353 962.227 173.216 962.504 172.529 962.227 171.02 961.395 171.02 961.256 171.157 960.84 171.294 960.84 171.569 960.84 171.706 960.84 171.98 960.84 172.118 960.702 172.667 960.424 173.353 960.147 173.902 960.008 174.314 960.008 174.588 959.87 174.863 959.592 175.137 959.315 175.412 959.038 175.549 959.038 175.549 958.899 175.686 958.899 175.686 958.899 175.686 958.899 175.824 958.76 175.824 958.899 175.961 959.038 175.961 959.176 175.961 959.315 176.235 959.176 176.51 959.038 176.647 958.899 177.196 958.067 178.569 958.76 179.118 958.899 179.118 959.176 179.255 959.315 179.118 959.592 178.98 959.87 178.98 960.147 178.843 960.702 178.706 961.534 178.706 961.672 178.157 961.672 178.02 961.672 177.882 961.534 177.882 961.256 177.196 960.84 177.745 960.424 177.745ZM966.802 177.059C966.802 176.922 966.664 176.784 966.525 176.784 966.387 176.784 966.387 176.784 966.248 176.922 965.971 177.059 966.109 177.608 965.832 177.608 965.832 177.745 965.693 177.745 965.555 177.745 965.416 177.882 965.139 177.882 964.861 178.02 964.307 178.431 963.891 178.843 963.336 179.118 963.198 179.255 962.92 179.255 962.781 179.392 962.643 179.529 962.643 179.529 962.504 179.667 962.366 179.804 962.088 179.667 961.95 179.804 961.95 180.49 962.504 181.176 963.336 180.765 963.475 180.765 964.168 179.667 964.307 179.529 964.445 179.392 964.584 179.529 964.723 179.392 965.139 179.392 965.555 179.255 965.971 179.392 966.248 179.392 966.664 179.529 966.802 179.255 967.08 178.843 966.802 178.294 966.802 177.882 966.802 177.608 966.941 177.196 966.802 177.059ZM965.139 178.843C965.416 178.98 966.248 178.157 965.832 178.157 965.693 178.157 965 178.706 965.139 178.843ZM968.744 177.196C968.605 176.784 968.466 176.373 967.773 176.373 967.773 176.373 967.773 176.51 967.773 176.51 967.634 176.647 967.634 176.922 967.773 177.196 967.773 177.333 967.634 177.471 967.634 177.608 967.773 177.745 967.773 177.745 967.773 177.882 968.05 178.294 968.189 178.431 968.466 178.706 968.882 178.706 969.437 178.294 969.298 177.745 969.16 177.471 968.882 177.333 968.744 177.196ZM956.958 169.784C956.403 170.059 956.681 170.608 956.819 171.02 956.819 171.294 956.681 171.431 956.681 171.706 956.542 172.804 956.265 174.039 956.403 175.275 956.403 175.549 956.403 175.961 956.403 176.235 956.403 176.647 956.542 177.608 956.542 177.882 956.403 178.157 955.987 178.294 955.849 178.569 955.433 179.118 955.017 179.529 954.462 179.941 953.908 180.353 953.353 180.627 953.214 181.451 953.353 181.588 953.353 181.588 953.63 181.725 953.769 181.725 953.908 181.863 954.046 181.863 954.601 181.725 955.433 180.49 955.71 180.078 955.849 179.941 955.849 179.667 955.987 179.529 956.126 179.255 956.265 178.843 956.542 178.843 956.819 178.98 956.958 179.392 957.235 179.255 957.513 179.118 957.513 178.569 957.513 178.294 957.374 177.882 957.235 177.471 957.235 177.059 957.235 176.784 957.235 176.647 957.235 176.51 957.235 176.235 957.235 176.098 957.235 175.961 957.374 175 957.374 174.176 957.651 173.353 957.929 172.804 958.206 172.255 958.345 171.569 958.483 171.431 958.345 171.294 958.206 171.157 958.067 170.471 957.651 169.784 956.958 169.784ZM954.462 177.608C954.601 178.294 953.908 178.843 954.046 179.392 954.185 179.392 954.185 179.392 954.324 179.392 954.462 179.255 954.74 178.98 954.878 178.706 955.017 178.706 955.017 178.569 955.017 178.431 955.433 178.157 955.987 178.02 956.126 177.471 956.126 176.922 955.294 176.51 954.601 176.51 954.462 176.51 954.185 176.647 954.046 176.647 953.63 177.333 954.462 177.196 954.462 177.608ZM969.853 170.745C969.16 170.471 968.744 171.157 968.328 171.02 968.189 170.882 968.189 170.608 967.912 170.608 967.08 170.471 967.08 170.471 967.08 170.471 966.941 170.471 966.664 170.471 966.387 170.471 966.387 170.471 966.248 170.471 966.109 170.608 966.248 171.294 966.802 171.294 966.941 171.706 966.941 171.706 966.941 171.843 966.941 171.843 966.802 171.98 966.525 172.118 966.387 172.255 966.109 172.392 965.832 172.667 965.555 172.804 965.277 172.941 964.861 173.078 964.723 173.353 964.723 173.353 964.723 173.49 964.723 173.49 964.861 173.627 965 173.627 965.139 173.627 965.277 173.765 966.387 173.49 966.525 173.353 966.802 173.216 966.941 172.941 967.08 172.804 967.496 172.529 967.773 172.392 968.189 172.255 968.605 171.98 968.744 171.706 969.16 171.569 969.576 171.706 969.576 171.706 969.576 171.706 969.714 171.569 970.269 171.157 970.13 170.882 969.992 170.745 969.992 170.745 969.853 170.745ZM968.189 174.451C968.189 174.176 968.744 173.49 969.021 173.353 969.16 173.078 968.744 172.667 968.466 172.667 968.189 172.804 968.05 172.941 967.773 173.078 967.357 173.353 966.802 173.627 966.387 173.902 966.248 174.039 965.693 174.176 965.555 174.314 965.555 174.451 965.555 174.451 965.555 174.451 966.109 174.725 966.525 174.176 967.08 174.176 967.08 174.314 967.08 174.588 966.941 174.725 966.387 175 965.971 175.412 965.693 175.961 965.555 175.961 965.555 175.961 965.555 175.961 965.555 175.824 965.416 175.686 965.277 175.549 965.277 175.412 965 175.275 965 175.137 964.584 175.137 964.307 175.137 964.307 175.275 964.307 175.686 964.584 175.961 964.723 176.373 964.723 176.51 964.723 176.647 964.723 176.784 965 176.784 965.139 176.922 965.277 176.922 965.693 176.922 965.693 176.784 965.832 176.51 965.832 176.373 966.109 176.51 966.248 176.373 966.525 176.235 966.664 176.098 966.802 176.098 967.08 175.961 967.219 175.824 967.496 175.824 967.773 175.549 968.05 175.137 968.189 174.863 968.189 174.725 968.05 174.588 968.189 174.451ZM978.45 174.588C978.311 174.725 978.311 174.725 978.172 174.863 977.895 175 977.618 175 977.479 175.137 976.924 175.412 976.37 175.549 975.954 175.824 975.815 175.824 975.815 175.824 975.815 175.824 975.815 175.686 976.092 175 976.231 174.863 976.37 174.588 976.508 174.314 976.647 173.902 976.924 173.49 977.34 173.078 977.479 172.529 977.618 172.118 976.786 171.569 976.231 171.569 975.815 171.706 975.26 171.706 974.567 171.706 973.874 171.706 973.874 171.706 973.874 171.706 973.735 171.843 973.597 171.843 973.458 171.98 973.181 172.392 974.29 173.49 974.845 173.353 975.26 173.353 975.399 172.941 975.676 172.804 975.815 172.804 975.815 172.804 975.815 172.804 975.815 173.078 975.676 173.353 975.538 173.49 975.399 174.039 975.26 174.588 975.122 175.412 975.122 175.549 974.983 175.824 975.122 176.098 975.122 176.373 974.151 176.51 973.874 176.647 973.181 177.059 972.487 177.333 971.794 177.608 971.24 177.882 970.408 178.02 970.269 178.431 970.269 178.843 971.101 179.529 971.794 179.118 972.765 178.569 973.874 177.882 974.983 177.333 975.26 177.059 975.815 176.51 976.231 176.51 976.231 176.51 976.231 176.51 976.231 176.51 976.231 176.647 976.231 176.647 976.231 176.647 976.092 176.647 975.954 176.784 975.815 176.922 975.954 177.059 975.954 177.059 975.954 177.059 976.508 176.784 976.924 176.51 977.479 176.373 977.618 176.373 977.756 176.235 977.895 176.235 978.45 176.098 979.143 175.824 979.42 175.412 979.559 175.137 978.866 174.588 978.45 174.588ZM998.693 177.608C998.555 177.471 997.861 177.059 997.584 177.059 997.307 176.922 997.168 176.784 996.891 176.784 996.752 176.784 996.613 176.784 996.475 176.784 996.198 177.333 996.752 177.608 996.891 177.882 997.029 178.02 997.029 178.294 997.168 178.569 997.445 178.98 998.139 178.98 998.693 178.843 998.971 178.569 998.971 178.569 998.832 178.157 998.832 177.882 998.832 177.745 998.693 177.608ZM1006.74 177.608C1006.74 177.608 1006.6 177.471 1006.46 177.471 1006.04 177.608 1005.76 178.294 1005.21 178.157 1005.07 177.745 1005.63 177.608 1005.49 177.196 1005.35 176.784 1004.66 176.647 1004.1 176.647 1003.96 176.647 1003.96 176.647 1003.96 176.647 1003.68 177.471 1004.24 177.333 1004.52 177.608 1004.52 177.882 1004.38 178.02 1004.24 178.294 1004.24 178.431 1004.24 178.569 1004.24 178.569 1003.96 178.843 1003.68 178.98 1003.27 179.118 1003.27 179.255 1003.13 179.255 1003.13 179.255 1002.85 179.392 1002.44 179.392 1002.16 179.529 1002.16 179.667 1002.16 179.667 1002.16 179.667 1002.44 179.804 1003.13 180.078 1003.68 179.941 1003.96 179.804 1004.24 179.667 1004.52 179.529 1004.52 179.529 1004.52 179.529 1004.52 179.667 1004.66 179.804 1004.52 179.941 1004.52 180.078 1004.1 181.176 1003.13 180.216 1002.44 180.49 1002.44 180.627 1002.44 180.627 1002.44 180.627 1002.44 181.039 1003.82 181.451 1004.52 181.314 1004.93 181.176 1005.63 180.627 1005.49 179.941 1005.49 179.667 1005.35 179.255 1005.21 179.118 1005.35 178.98 1005.35 178.98 1005.49 178.843 1005.63 178.843 1005.63 178.843 1005.63 178.843 1005.63 178.98 1005.49 179.118 1005.49 179.255 1005.76 179.255 1005.76 178.98 1005.9 178.98 1006.18 178.843 1006.32 178.706 1006.46 178.569 1006.74 178.431 1007.15 178.431 1007.29 178.294 1007.43 177.882 1007.01 177.745 1006.74 177.608ZM1007.43 173.078C1007.15 173.216 1007.15 173.627 1006.74 173.627 1006.74 173.627 1006.74 173.627 1006.74 173.627 1006.6 173.216 1007.01 172.941 1007.29 172.667 1007.29 172.529 1007.43 172.392 1007.43 172.255 1007.57 172.255 1007.57 172.118 1007.57 172.118 1007.71 171.98 1007.71 171.98 1007.71 171.843 1007.84 171.569 1008.26 171.294 1008.26 171.02 1008.4 170.745 1008.26 170.471 1008.26 170.333 1007.84 170.059 1007.57 170.196 1007.15 170.196 1007.15 170.333 1007.01 170.471 1007.01 170.608 1007.01 170.745 1007.15 170.882 1007.15 171.02 1007.15 171.157 1007.01 171.431 1007.01 171.431 1006.74 171.98 1006.6 172.392 1006.32 172.804 1006.18 172.941 1006.18 172.941 1006.18 172.941 1006.18 172.667 1006.18 172.392 1006.18 172.118 1006.18 171.98 1005.76 171.98 1005.76 171.843 1005.76 171.843 1005.76 171.706 1005.76 171.706 1005.9 171.294 1005.76 171.02 1005.35 171.02 1005.35 170.882 1005.35 170.882 1005.35 170.745 1005.76 170.333 1005.9 169.922 1005.35 169.51 1005.21 169.373 1005.07 169.235 1004.66 169.235 1004.66 169.373 1004.52 169.373 1004.52 169.373 1004.38 169.647 1004.66 169.784 1004.66 170.059 1004.66 170.059 1004.24 170.745 1004.24 170.882 1004.1 171.157 1003.55 171.02 1003.27 171.294 1003.27 171.294 1003.27 171.294 1003.27 171.431 1003.41 171.569 1003.68 171.569 1003.68 171.706 1003.68 171.706 1003.68 171.706 1003.68 171.706 1003.68 171.98 1003.41 172.118 1003.27 172.255 1003.27 172.392 1003.27 172.392 1003.27 172.392 1003.27 172.392 1003.27 172.529 1003.27 172.529 1003.41 172.529 1003.41 172.529 1003.41 172.529 1003.55 172.392 1003.82 172.255 1003.96 172.255 1004.1 172.118 1004.24 172.118 1004.38 172.118 1004.52 171.98 1004.38 171.843 1004.66 171.843 1004.66 171.843 1004.66 171.843 1004.66 171.843 1004.79 172.118 1004.38 172.529 1004.24 172.804 1004.1 172.804 1003.82 172.804 1003.55 172.804 1003.55 172.941 1003.55 173.078 1003.55 173.216 1003.68 173.216 1003.82 173.353 1003.96 173.49 1003.96 173.765 1003.41 174.314 1003.41 174.725 1003.41 174.725 1003.41 174.725 1003.41 174.725 1003.68 174.863 1004.52 174.039 1004.66 173.902 1005.21 173.902 1005.21 173.902 1005.49 173.765 1005.63 173.765 1005.63 173.765 1005.63 173.765 1005.76 173.765 1005.9 173.902 1005.76 174.176 1005.63 174.451 1005.35 174.451 1005.07 174.588 1004.66 174.725 1003.27 175.686 1002.71 175.549 1002.58 175.412 1002.71 175.275 1002.58 175.137 1002.44 174.588 1002.02 173.627 1001.33 173.627 1001.19 173.902 1001.47 174.176 1001.47 174.451 1001.74 175.275 1001.47 175.412 1002.44 175.686 1002.44 175.824 1002.44 175.824 1002.44 175.961 1002.3 175.961 1002.16 175.961 1002.02 176.098 1002.02 176.098 1002.02 176.098 1002.02 176.235 1002.16 176.373 1003.13 176.51 1003.41 176.235 1003.96 175.824 1004.52 175.412 1005.21 175 1005.35 175 1005.49 174.863 1005.63 174.725 1005.63 174.725 1005.76 174.725 1005.76 174.725 1006.04 174.588 1006.32 174.314 1006.6 174.314 1006.74 174.451 1006.74 174.451 1006.74 174.451 1006.6 175.137 1005.07 175.961 1004.52 176.51 1004.52 176.51 1004.52 176.51 1004.52 176.51 1004.52 176.51 1004.52 176.51 1004.52 176.51 1005.07 176.51 1005.49 176.098 1005.9 175.961 1006.18 175.961 1006.46 175.824 1006.74 175.824 1007.43 175.549 1007.98 174.863 1008.4 174.176 1008.54 174.176 1008.68 174.039 1008.68 173.902 1008.95 173.49 1007.98 172.804 1007.43 173.078ZM1005.49 173.216C1005.63 173.216 1005.76 172.804 1005.63 172.529 1005.49 172.529 1005.49 172.529 1005.49 172.529 1005.35 172.667 1005.21 172.941 1005.35 173.216 1005.35 173.216 1005.35 173.216 1005.49 173.216ZM1000.5 176.647C1000.5 176.784 1000.36 176.784 1000.22 176.922 1000.22 177.059 1000.22 177.196 1000.22 177.333 1000.08 177.608 999.664 178.02 999.802 178.431 999.802 178.569 1000.36 178.98 1000.63 178.843 1001.19 178.569 1001.47 176.647 1000.5 176.647ZM990.513 171.569C990.235 171.294 989.819 171.294 989.403 171.431 989.265 171.569 989.126 171.706 988.849 171.843 988.433 172.118 988.017 172.255 987.601 172.529 987.462 172.667 986.769 173.078 986.63 172.941 986.63 172.667 986.769 172.255 986.769 172.118 987.046 172.118 987.185 171.98 987.324 171.98 987.878 171.706 988.987 171.02 989.265 170.471 989.126 170.059 988.571 169.647 988.155 169.784 987.74 169.784 987.462 170.059 987.185 170.333 986.908 170.196 987.185 169.51 986.492 169.373 986.214 169.647 986.214 170.059 986.214 170.471 986.214 170.608 986.214 170.745 986.214 170.745 986.214 171.02 985.798 171.294 985.66 171.431 985.66 171.431 985.66 171.431 985.521 171.431 985.382 171.02 985.382 170.333 984.689 170.471 984.55 170.745 984.689 170.882 984.689 171.157 984.55 171.294 984.55 171.431 984.412 171.569 984.412 171.706 984.412 171.98 984.412 172.118 984.134 172.392 983.302 172.392 982.887 172.667 982.748 173.078 983.58 173.627 983.996 173.49 984.273 173.49 984.273 173.353 984.55 173.353 984.689 173.353 984.828 173.765 985.244 173.627 985.382 173.627 985.382 173.49 985.66 173.49 985.66 173.49 985.66 173.49 985.66 173.49 985.66 173.49 985.66 173.627 985.66 173.627 985.521 173.902 984.55 174.314 984.273 174.451 983.58 174.863 982.887 175.137 982.332 175.549 981.916 175.824 981.5 176.098 981.223 176.373 980.807 176.51 979.698 177.059 979.836 177.608 979.836 177.608 979.836 177.608 979.836 177.608 980.113 177.745 980.391 177.608 980.529 177.608 980.807 177.608 981.084 177.471 981.361 177.471 982.055 177.196 982.332 176.784 982.887 176.373 983.025 176.235 983.302 176.098 983.58 175.961 983.719 175.686 983.996 175.412 984.412 175.412 984.412 175.412 984.412 175.412 984.412 175.412 984.273 175.824 984.134 176.098 984.412 176.51 984.966 176.51 984.966 175.961 985.244 175.824 985.521 175.686 985.66 175.549 985.937 175.412 985.937 175.412 986.076 175.275 986.214 175.275 986.214 175.412 986.214 175.412 986.214 175.412 986.214 175.549 986.076 175.549 985.937 175.549 985.937 175.961 985.798 176.235 985.382 176.373 985.244 176.373 985.105 176.373 984.966 176.647 984.966 176.647 984.966 176.647 984.966 176.647 985.244 176.922 985.382 176.784 985.66 176.922 985.66 176.922 985.66 176.922 985.66 177.059 985.66 177.059 985.66 177.196 985.66 177.196 985.66 177.333 985.244 177.333 985.244 177.333 984.966 177.745 985.521 177.745 985.66 178.02 985.66 178.02 985.66 178.157 985.66 178.157 985.521 178.294 985.244 178.431 985.244 178.431 985.105 178.843 985.798 178.98 985.521 179.392 985.382 179.529 984.134 179.941 983.996 179.941 983.857 179.941 983.719 179.804 983.58 179.941 982.887 180.353 983.996 181.039 984.412 181.176 984.55 180.902 984.55 180.49 984.828 180.353 985.105 180.353 985.521 180.627 985.798 180.765 985.937 180.902 985.937 180.902 986.076 181.039 986.769 181.176 986.353 180.49 986.492 180.216 986.63 179.941 987.74 179.529 988.017 179.392 988.294 178.98 987.601 178.431 987.324 178.294 986.908 178.569 987.046 179.255 986.63 179.529 986.63 179.529 986.63 179.529 986.492 179.529 986.492 179.392 986.492 179.392 986.492 179.392 986.353 178.706 986.63 178.157 986.908 177.608 986.908 177.333 987.324 177.059 987.185 176.647 987.185 176.51 987.185 176.373 987.185 176.235 987.046 176.098 986.908 176.098 986.769 176.098 986.769 175.824 986.63 175.686 986.492 175.549 986.492 175.549 986.492 175.549 986.492 175.549 986.63 175.549 986.63 175.549 986.769 175.549 986.769 175.549 986.769 175.549 986.908 175.549 986.908 175.275 986.769 175.137 986.908 175 986.908 174.863 987.046 174.863 987.046 174.863 987.462 174.588 988.155 174.176 988.294 173.765 988.294 173.49 987.74 173.078 987.324 173.353 987.185 173.353 987.185 173.49 987.046 173.49 986.908 173.49 986.908 173.49 986.908 173.49 987.046 173.49 987.046 173.49 987.046 173.49 987.324 173.216 987.74 172.941 988.155 172.804 988.294 172.804 988.433 172.804 988.571 172.804 988.71 172.667 988.987 172.667 989.126 172.529 989.403 172.392 989.681 172.529 989.958 172.392 990.097 172.255 990.651 171.98 990.513 171.569ZM987.601 170.471C987.324 170.745 986.63 170.882 986.908 171.431 987.046 171.431 987.046 171.431 987.046 171.431 987.185 171.157 987.74 170.745 987.601 170.471 987.601 170.471 987.601 170.471 987.601 170.471ZM985.66 180.078C985.66 179.941 985.66 179.804 985.66 179.667 985.66 179.667 985.66 179.667 985.521 179.667 985.521 179.667 985.521 179.667 985.521 179.667 985.244 179.804 985.105 179.804 985.105 180.078 985.105 180.078 985.105 180.216 985.105 180.216 985.382 180.216 985.521 180.216 985.66 180.078ZM985.521 172.118C985.521 172.118 985.521 172.255 985.66 172.255 985.798 172.255 985.798 172.255 985.798 172.255 985.937 172.255 986.076 171.98 985.937 171.843 985.937 171.843 985.937 171.843 985.937 171.843 985.798 171.843 985.66 171.98 985.521 172.118ZM985.66 172.941C985.66 172.941 985.66 172.804 985.66 172.667 985.66 172.667 985.66 172.667 985.521 172.667 985.521 172.804 985.521 172.804 985.521 172.804 985.521 172.804 985.521 172.941 985.521 172.941 985.66 172.941 985.521 172.941 985.66 172.941 985.66 172.941 985.66 172.941 985.66 172.941ZM985.382 175.137C985.66 175 986.908 174.176 986.908 173.902 986.908 173.902 986.908 173.902 986.769 173.902 986.492 174.039 986.492 173.902 986.353 173.902 985.937 174.039 985.105 174.588 985.244 175 985.382 175.137 985.382 175.137 985.382 175.137ZM997.584 173.078C997.445 172.804 997.029 172.667 996.752 172.804 996.336 173.078 996.198 173.627 995.643 173.902 995.643 173.902 995.504 174.176 995.227 174.039 995.088 173.902 995.227 173.627 995.227 173.353 995.227 172.804 995.366 172.392 995.227 171.843 995.227 171.431 993.979 170.745 993.563 170.608 993.424 170.608 993.424 170.608 993.424 170.608 992.87 171.431 993.424 171.843 993.702 172.392 993.84 172.667 994.118 174.725 993.979 175.137 993.84 175.275 993.147 175.686 992.87 175.824 992.176 176.235 991.622 176.647 990.929 176.922 990.651 177.059 990.374 177.196 990.097 177.333 989.819 177.333 989.681 177.196 989.542 177.333 989.265 178.294 989.819 178.706 990.651 178.431 991.345 178.157 991.76 177.745 992.176 177.333 992.454 177.059 993.147 176.51 993.563 176.235 993.702 176.235 993.702 176.235 993.702 176.235 993.84 176.647 993.702 177.059 993.563 177.333 993.147 178.02 992.592 178.706 991.622 178.98 991.206 179.118 990.651 178.98 990.374 179.392 990.374 179.392 990.513 179.392 990.513 179.529 990.79 179.529 991.345 179.529 991.76 179.392 991.899 179.529 992.038 179.529 992.176 179.529 993.286 179.255 993.84 178.843 994.395 178.02 994.534 177.745 994.672 177.608 994.811 177.333 994.95 176.784 994.95 176.235 995.088 175.824 995.227 175.549 995.088 175.412 995.227 175.275 995.366 175 995.643 174.863 995.92 174.725 996.198 174.588 996.336 174.451 996.475 174.314 996.613 174.176 996.891 174.039 997.168 173.902 997.307 173.765 997.723 173.49 997.584 173.078ZM971.655 147.824C982.193 147.824 982.193 147.824 982.193 147.824 982.193 146.176 982.193 146.176 982.193 146.176 971.655 146.176 971.655 146.176 971.655 146.176 971.655 147.824 971.655 147.824 971.655 147.824ZM971.655 157.294C982.193 157.294 982.193 157.294 982.193 157.294 982.193 155.647 982.193 155.647 982.193 155.647 971.655 155.647 971.655 155.647 971.655 155.647 971.655 157.294 971.655 157.294 971.655 157.294ZM962.643 138.216C962.643 141.373 962.643 141.373 962.643 141.373 985.66 141.235 985.66 141.235 985.66 141.235 987.185 141.235 989.126 141.784 989.958 142.745 971.517 142.745 971.517 142.745 971.517 142.745 971.517 143.98 971.517 143.98 971.517 143.98 990.79 143.98 990.79 143.98 990.79 143.98 991.76 146.314 990.097 149.882 987.046 150.157 962.643 150.157 962.643 150.157 962.643 150.157 962.643 153.314 962.643 153.314 962.643 153.314 987.324 153.314 987.324 153.314 987.324 153.314 991.345 153.451 992.315 159.216 987.324 159.627 962.643 159.627 962.643 159.627 962.643 159.627 962.504 163.059 962.504 163.059 962.504 163.059 996.336 163.059 996.336 163.059 996.336 163.059 998.139 163.196 1003.27 161.137 1002.44 155.51 1002.02 153.176 1000.08 151.118 997.723 150.431 998.555 150.157 1000.77 148.235 1001.19 145.765 1001.61 142.196 999.387 138.353 994.534 138.216 962.643 138.216 962.643 138.216 962.643 138.216ZM981.5 108.157C968.744 108.157 957.097 113.373 948.777 121.608 940.319 129.98 935.189 141.373 935.189 154 935.189 166.627 940.319 178.157 948.777 186.392 957.097 194.765 968.744 199.843 981.5 199.843 994.256 199.843 1005.9 194.765 1014.22 186.392 1022.54 178.157 1027.81 166.627 1027.81 154 1027.81 141.373 1022.54 129.98 1014.22 121.608 1005.9 113.373 994.256 108.157 981.5 108.157ZM1012.97 122.98C1004.93 115.02 993.702 110.078 981.5 110.078 969.16 110.078 958.067 115.02 950.025 122.98 941.983 130.941 936.992 141.922 936.992 154 936.992 166.216 941.983 177.196 950.025 185.157 958.067 193.118 969.16 198.059 981.5 198.059 993.702 198.059 1004.93 193.118 1012.97 185.157 1021.02 177.196 1025.87 166.216 1025.87 154 1025.87 141.922 1021.02 130.941 1012.97 122.98ZM975.815 187.902C975.815 183.647 975.815 183.647 975.815 183.647 974.567 183.647 974.567 183.647 974.567 183.647 974.567 184.059 974.567 184.059 974.567 184.059 975.26 184.059 975.26 184.059 975.26 184.059 975.26 187.902 975.26 187.902 975.26 187.902 975.815 187.902 975.815 187.902 975.815 187.902ZM979.281 186.118C979.559 186.118 979.698 185.98 979.975 185.843 980.113 185.569 980.252 185.294 980.252 185.02 980.252 184.745 980.113 184.471 979.975 184.333 979.698 184.059 979.559 183.922 979.143 183.922 978.866 183.922 978.727 184.059 978.45 184.333 978.311 184.471 978.172 184.745 978.172 185.02 978.172 185.294 978.311 185.569 978.45 185.843 978.727 185.98 978.866 186.118 979.281 186.118ZM979.143 187.902C980.113 186.392 980.113 186.392 980.113 186.392 980.113 186.392 980.113 186.392 980.113 186.255 980.529 185.843 980.668 185.294 980.668 185.02 980.668 184.608 980.529 184.333 980.252 184.059 979.975 183.784 979.698 183.647 979.281 183.647 978.866 183.647 978.45 183.784 978.172 184.059 977.895 184.333 977.756 184.608 977.756 185.02 977.756 185.431 977.895 185.843 978.172 186.118 978.45 186.392 978.727 186.529 979.143 186.529 979.143 186.529 979.281 186.529 979.281 186.392 979.42 186.392 979.559 186.392 979.559 186.392 978.588 187.902 978.588 187.902 978.588 187.902 979.143 187.902 979.143 187.902 979.143 187.902ZM983.025 185.569C982.748 185.569 982.471 185.569 982.332 185.843 982.055 185.98 982.055 186.255 982.055 186.529 982.055 186.941 982.055 187.078 982.332 187.353 982.471 187.627 982.748 187.627 983.025 187.627 983.302 187.627 983.58 187.627 983.719 187.353 983.996 187.216 983.996 186.941 983.996 186.529 983.996 186.255 983.996 185.98 983.719 185.843 983.58 185.569 983.302 185.569 983.025 185.569ZM983.164 183.647C982.193 185.157 982.193 185.157 982.193 185.157 982.193 185.157 982.055 185.294 982.055 185.294 981.777 185.843 981.5 186.255 981.5 186.667 981.5 187.078 981.639 187.353 981.916 187.627 982.193 187.902 982.609 188.039 983.025 188.039 983.441 188.039 983.857 187.902 984.134 187.627 984.412 187.353 984.55 186.941 984.55 186.529 984.55 186.118 984.412 185.843 984.134 185.569 983.857 185.294 983.58 185.157 983.164 185.157 983.025 185.157 983.025 185.157 982.887 185.157 982.887 185.157 982.748 185.157 982.609 185.157 983.719 183.647 983.719 183.647 983.719 183.647 983.164 183.647 983.164 183.647 983.164 183.647ZM985.798 186.529C985.798 186.941 985.798 187.216 986.076 187.353 986.214 187.627 986.492 187.627 986.769 187.627 987.185 187.627 987.324 187.627 987.601 187.353 987.74 187.216 987.878 186.941 987.878 186.529 987.878 185.02 987.878 185.02 987.878 185.02 987.878 184.745 987.74 184.471 987.601 184.196 987.324 184.059 987.185 183.922 986.769 183.922 986.492 183.922 986.214 184.059 986.076 184.196 985.798 184.471 985.798 184.745 985.798 185.157 985.798 186.529 985.798 186.529 985.798 186.529ZM985.382 186.392C985.382 186.667 985.382 186.941 985.382 187.078 985.382 187.216 985.521 187.353 985.521 187.49 985.798 187.627 985.937 187.765 986.076 187.902 986.353 188.039 986.492 188.039 986.769 188.039 987.046 188.039 987.324 188.039 987.462 187.902 987.74 187.765 987.878 187.627 988.017 187.49 988.155 187.353 988.155 187.216 988.155 187.078 988.294 186.941 988.294 186.667 988.294 186.529 988.294 185.157 988.294 185.157 988.294 185.157 988.294 184.608 988.155 184.333 987.878 184.059 987.601 183.784 987.185 183.647 986.769 183.647 986.492 183.647 986.353 183.647 986.076 183.784 985.937 183.784 985.798 183.922 985.521 184.196 985.521 184.333 985.382 184.471 985.382 184.608 985.382 184.745 985.382 184.882 985.382 185.157 985.382 186.392 985.382 186.392 985.382 186.392ZM946.975 171.02C947.113 170.882 947.113 170.882 947.113 170.882 947.252 170.745 947.113 170.745 947.113 170.608 947.113 170.471 947.113 170.471 947.113 170.471 946.836 170.059 946.697 169.784 946.42 169.647 946.143 169.51 945.866 169.51 945.588 169.647 945.311 169.647 945.172 169.922 945.034 170.196 945.034 170.333 945.034 170.745 945.311 171.157 945.311 171.294 945.45 171.431 945.45 171.569 945.588 171.569 945.727 171.569 945.866 171.431 946.975 171.02 946.975 171.02 946.975 171.02ZM949.055 170.059C949.193 169.922 949.193 169.922 949.193 169.784 949.332 169.784 949.193 169.647 949.193 169.373 949.055 169.235 949.055 169.235 949.055 169.235 948.916 168.824 948.639 168.686 948.361 168.549 948.223 168.412 947.945 168.412 947.529 168.549 947.252 168.686 947.113 168.824 946.975 169.098 946.975 169.51 946.975 169.784 947.252 170.196 947.252 170.471 947.252 170.471 947.252 170.471 947.391 170.608 947.391 170.608 947.529 170.745 947.529 170.745 947.529 170.745 947.668 170.608 949.055 170.059 949.055 170.059 949.055 170.059ZM950.164 171.157C949.332 169.098 949.332 169.098 949.332 169.098 949.055 168.549 948.777 168.137 948.361 167.863 948.084 167.588 947.668 167.588 947.252 167.863 946.975 167.863 946.697 168.137 946.697 168.412 946.559 168.686 946.559 168.961 946.559 169.373 946.42 169.098 946.143 168.961 946.004 168.824 945.727 168.824 945.45 168.824 945.311 168.961 944.895 169.098 944.756 169.235 944.618 169.647 944.618 170.059 944.756 170.471 944.895 171.02 945.866 173.078 945.866 173.078 945.866 173.078 946.004 172.941 946.004 172.941 946.004 172.941 945.866 172.667 945.866 172.529 945.866 172.392 945.866 172.255 946.004 172.118 946.281 172.118 949.193 170.745 949.193 170.745 949.193 170.745 949.471 170.745 949.609 170.608 949.748 170.745 949.887 170.745 949.887 170.882 950.025 171.157 950.164 171.157 950.164 171.157 950.164 171.157ZM948.084 166.49C946.975 162.647 946.975 162.647 946.975 162.647 945.727 162.51 945.727 162.51 945.727 162.51 945.727 162.647 945.727 162.647 945.727 162.647 946.143 162.784 946.42 162.784 946.559 163.059 946.697 163.196 946.836 163.471 946.975 163.882 947.391 164.98 947.391 164.98 947.391 164.98 947.391 165.118 947.391 165.118 947.391 165.255 947.252 165.255 947.252 165.255 946.975 165.392 945.588 165.804 945.588 165.804 945.588 165.804 945.588 165.804 945.45 165.804 945.45 165.804 945.45 165.804 945.45 165.667 945.311 165.667 945.172 164.706 945.172 164.706 945.172 164.706 945.034 164.294 945.034 164.157 945.034 164.02 945.172 163.882 945.311 163.745 945.588 163.608 945.45 163.471 945.45 163.471 945.45 163.471 943.924 163.882 943.924 163.882 943.924 163.882 943.924 164.02 943.924 164.02 943.924 164.02 944.202 164.02 944.34 164.02 944.479 164.157 944.618 164.157 944.756 164.431 944.895 164.706 945.172 165.667 945.172 165.667 945.172 165.667 945.172 165.804 945.172 165.804 945.172 165.804 945.172 165.941 945.034 165.941 944.895 165.941 943.786 166.353 943.786 166.353 943.786 166.353 943.647 166.353 943.508 166.353 943.37 166.353 943.37 166.353 943.37 166.216 943.37 166.078 942.954 164.98 942.954 164.98 942.954 164.98 942.815 164.569 942.815 164.294 942.954 164.157 942.954 164.02 943.231 163.882 943.508 163.745 943.37 163.608 943.37 163.608 943.37 163.608 942.399 164.02 942.399 164.02 942.399 164.02 943.508 167.863 943.508 167.863 943.508 167.863 943.647 167.863 943.647 167.863 943.647 167.863 943.647 167.588 943.647 167.314 943.647 167.176 943.786 167.176 943.924 167.039 944.063 167.039 947.113 166.078 947.113 166.078 947.113 166.078 947.391 166.078 947.529 166.078 947.668 166.078 947.807 166.216 947.945 166.353 947.945 166.627 948.084 166.49 948.084 166.49 948.084 166.49ZM946.697 161.549C946.281 159.49 946.281 159.49 946.281 159.49 946.143 159.49 946.143 159.49 946.143 159.49 946.143 159.765 946.143 159.902 946.143 160.039 946.004 160.176 945.866 160.176 945.588 160.314 942.538 160.725 942.538 160.725 942.538 160.725 942.26 160.863 942.122 160.725 941.983 160.725 941.845 160.588 941.845 160.451 941.706 160.176 941.567 160.176 941.567 160.176 941.567 160.176 941.983 162.373 941.983 162.373 941.983 162.373 942.122 162.235 942.122 162.235 942.122 162.235 942.122 161.961 942.122 161.824 942.122 161.686 942.26 161.686 942.399 161.549 942.676 161.549 945.727 161 945.727 161 945.727 161 946.004 161 946.143 161 946.281 161.137 946.42 161.137 946.42 161.275 946.559 161.549 946.697 161.549 946.697 161.549 946.697 161.549ZM941.151 156.471C941.29 158.529 941.29 158.529 941.29 158.529 941.429 158.529 941.429 158.529 941.429 158.529 941.429 158.255 941.567 158.118 941.567 157.98 941.706 157.843 941.845 157.843 942.122 157.843 945.45 157.569 945.45 157.569 945.45 157.569 945.588 157.569 945.727 157.569 945.727 157.706 945.866 157.706 945.866 157.706 945.866 157.843 945.866 157.98 945.866 158.118 945.588 158.118 945.588 158.255 945.588 158.255 945.588 158.255 945.45 158.255 945.45 158.255 945.311 158.392 945.311 158.392 945.311 158.529 945.311 158.667 945.311 158.667 945.311 158.804 945.45 158.804 945.45 158.941 945.588 158.941 945.588 158.941 945.727 158.941 946.004 158.804 946.004 158.667 946.143 158.529 946.143 158.255 946.143 157.98 946.143 157.569 946.004 157.294 945.727 157.157 945.45 156.882 945.172 156.882 944.618 156.882 942.122 157.02 942.122 157.02 942.122 157.02 941.845 157.02 941.567 157.02 941.567 157.02 941.429 156.882 941.429 156.745 941.29 156.471 941.151 156.471 941.151 156.471 941.151 156.471ZM945.866 155.373C945.866 153.176 945.866 153.176 945.866 153.176 945.727 153.176 945.727 153.176 945.727 153.176 945.727 153.451 945.727 153.725 945.588 153.863 945.45 153.863 945.311 154 945.034 154 941.845 154 941.845 154 941.845 154 941.706 154 941.429 153.863 941.429 153.863 941.29 153.725 941.29 153.588 941.29 153.176 941.151 153.176 941.151 153.176 941.151 153.176 941.151 155.373 941.151 155.373 941.151 155.373 941.29 155.373 941.29 155.373 941.29 155.373 941.29 155.098 941.29 154.961 941.429 154.824 941.429 154.686 941.706 154.686 941.845 154.686 945.034 154.686 945.034 154.686 945.034 154.686 945.311 154.686 945.45 154.686 945.588 154.824 945.727 154.961 945.727 155.098 945.727 155.373 945.866 155.373 945.866 155.373 945.866 155.373ZM945.034 151.392C942.122 150.98 942.122 150.98 942.122 150.98 946.281 148.373 946.281 148.373 946.281 148.373 946.42 148.235 946.42 148.235 946.42 148.235 942.399 147.686 942.399 147.686 942.399 147.686 942.122 147.686 941.983 147.549 941.983 147.549 941.845 147.412 941.845 147.275 941.845 147 941.706 146.863 941.706 146.863 941.706 146.863 941.567 148.647 941.567 148.647 941.567 148.647 941.706 148.647 941.706 148.647 941.706 148.647 941.706 148.373 941.845 148.235 941.845 148.098 941.983 147.961 942.122 147.961 942.399 148.098 944.895 148.373 944.895 148.373 944.895 148.373 941.151 150.706 941.151 150.706 941.151 150.706 941.013 151.941 941.013 151.941 941.013 151.941 941.151 151.941 941.151 151.941 941.151 151.941 941.151 151.804 941.29 151.667 941.429 151.529 941.429 151.392 941.567 151.392 941.706 151.255 945.034 151.804 945.034 151.804 945.034 151.804 945.311 151.804 945.45 151.804 945.588 151.941 945.588 152.078 945.588 152.216 945.588 152.49 945.727 152.49 945.727 152.49 945.727 152.49 946.004 150.843 946.004 150.843 946.004 150.843 945.866 150.843 945.866 150.843 945.866 150.843 945.727 151.118 945.727 151.255 945.588 151.392 945.588 151.392 945.311 151.529 945.034 151.392ZM947.391 142.333C946.004 141.922 946.004 141.922 946.004 141.922 945.866 141.922 945.727 141.784 945.588 141.647 945.588 141.647 945.588 141.51 945.727 141.235 945.588 141.235 945.588 141.235 945.588 141.235 944.895 143.157 944.895 143.157 944.895 143.157 945.034 143.157 945.034 143.157 945.034 143.157 945.172 142.882 945.311 142.745 945.311 142.608 945.45 142.608 945.588 142.608 945.866 142.608 947.113 143.02 947.113 143.02 947.113 143.02 947.252 143.157 947.252 143.431 947.252 143.569 947.252 143.706 947.252 143.98 947.113 144.118 946.975 144.667 946.697 145.078 946.143 145.353 945.727 145.49 945.172 145.49 944.479 145.353 943.786 145.078 943.37 144.804 943.092 144.392 942.815 143.98 942.676 143.431 942.954 142.882 943.092 142.471 943.231 142.196 943.508 142.059 943.786 141.922 944.063 141.784 944.618 141.784 944.618 141.647 944.618 141.647 944.618 141.647 943.231 141.235 943.231 141.235 943.231 141.235 943.092 141.373 943.092 141.373 943.092 141.373 943.231 141.373 943.231 141.51 943.231 141.51 943.37 141.51 943.37 141.647 943.37 141.647 943.37 141.647 943.231 141.784 943.092 142.059 942.815 142.333 942.676 142.608 942.676 142.882 942.399 143.706 942.399 144.255 942.815 144.941 943.092 145.49 943.508 145.902 944.34 146.176 945.034 146.314 945.588 146.314 946.143 145.902 946.697 145.627 947.113 145.078 947.391 144.392 947.529 143.98 947.529 143.706 947.529 143.294 947.529 143.02 947.529 142.745 947.391 142.333ZM944.618 137.941C944.756 137.667 944.895 137.529 945.034 137.529 945.172 137.529 945.45 137.667 945.866 137.804 947.391 138.627 947.391 138.627 947.391 138.627 947.668 138.765 947.945 138.902 948.223 138.902 948.5 139.039 948.639 139.039 948.916 138.902 949.055 138.902 949.332 138.765 949.471 138.49 949.748 138.353 949.887 138.078 950.025 137.804 950.302 137.255 950.441 136.706 950.302 136.294 950.164 135.882 949.748 135.471 949.193 135.059 947.529 134.235 947.529 134.235 947.529 134.235 947.252 134.098 947.113 133.961 946.975 133.824 946.975 133.686 946.975 133.549 947.113 133.275 946.975 133.275 946.975 133.275 946.975 133.275 946.143 134.647 946.143 134.647 946.143 134.647 946.281 134.784 946.281 134.784 946.281 134.784 946.42 134.51 946.559 134.373 946.697 134.373 946.836 134.373 947.113 134.373 947.252 134.51 949.055 135.471 949.055 135.471 949.055 135.471 949.609 135.745 949.887 136.02 950.025 136.431 950.164 136.706 950.025 137.118 949.887 137.529 949.609 137.941 949.332 138.216 949.055 138.216 948.639 138.353 948.223 138.216 947.807 137.941 946.004 136.98 946.004 136.98 946.004 136.98 945.727 136.843 945.588 136.706 945.45 136.706 945.45 136.569 945.45 136.294 945.588 136.157 945.45 136.02 945.45 136.02 945.45 136.02 944.479 137.941 944.479 137.941 944.479 137.941 944.618 137.941 944.618 137.941 944.618 137.941ZM951.412 133.549C949.055 131.627 949.055 131.627 949.055 131.627 954.046 131.627 954.046 131.627 954.046 131.627 954.185 131.49 954.185 131.49 954.185 131.49 950.996 129.02 950.996 129.02 950.996 129.02 950.857 128.882 950.719 128.745 950.719 128.608 950.719 128.471 950.857 128.333 950.996 128.059 950.857 127.922 950.857 127.922 950.857 127.922 949.748 129.294 949.748 129.294 949.748 129.294 949.887 129.431 949.887 129.431 949.887 129.431 950.164 129.157 950.302 129.02 950.302 129.02 950.441 129.02 950.58 129.02 950.857 129.294 952.798 130.804 952.798 130.804 952.798 130.804 948.5 130.941 948.5 130.941 948.5 130.941 947.668 131.902 947.668 131.902 947.668 131.902 947.807 131.902 947.807 131.902 947.807 131.902 947.945 131.902 947.945 131.765 948.084 131.765 948.223 131.765 948.361 131.627 948.639 131.765 951.134 133.824 951.134 133.824 951.134 133.824 951.412 133.961 951.55 134.098 951.55 134.235 951.55 134.373 951.412 134.51 951.273 134.784 951.412 134.784 951.412 134.784 951.412 134.784 952.521 133.549 952.521 133.549 952.521 133.549 952.382 133.412 952.382 133.412 952.382 133.412 952.105 133.686 951.966 133.686 951.828 133.686 951.828 133.824 951.55 133.686 951.412 133.549ZM955.017 130.529C956.542 128.882 956.542 128.882 956.542 128.882 956.403 128.882 956.403 128.882 956.403 128.882 956.265 129.02 955.987 129.157 955.987 129.157 955.849 129.157 955.71 129.02 955.433 128.882 953.214 126.686 953.214 126.686 953.214 126.686 952.937 126.549 952.937 126.412 952.937 126.275 952.937 126.137 953.076 126 953.214 125.725 953.076 125.725 953.076 125.725 953.076 125.725 951.55 127.235 951.55 127.235 951.55 127.235 951.689 127.373 951.689 127.373 951.689 127.373 951.828 127.098 952.105 126.961 952.244 126.961 952.382 126.961 952.521 127.098 952.66 127.235 954.878 129.431 954.878 129.431 954.878 129.431 955.155 129.569 955.155 129.706 955.155 129.843 955.155 129.98 955.155 130.118 954.878 130.392 955.017 130.529 955.017 130.529 955.017 130.529ZM958.899 126.824C959.038 126.824 959.038 126.824 959.038 126.824 958.067 122.569 958.067 122.569 958.067 122.569 958.067 122.294 957.929 122.02 958.067 121.882 958.067 121.745 958.067 121.608 958.206 121.608 958.067 121.471 958.067 121.471 958.067 121.471 956.958 122.294 956.958 122.294 956.958 122.294 957.097 122.431 957.097 122.431 957.097 122.431 957.235 122.294 957.374 122.294 957.374 122.294 957.513 122.294 957.651 122.294 957.651 122.294 957.651 122.431 957.651 122.431 957.79 122.569 957.79 122.569 957.79 122.706 957.79 122.843 958.483 125.725 958.483 125.725 958.483 125.725 957.374 125.176 956.681 124.765 956.126 124.49 955.71 124.216 955.433 124.078 955.433 123.941 955.294 123.941 955.294 123.804 955.433 123.804 955.433 123.667 955.571 123.529 955.71 123.392 955.571 123.255 955.571 123.255 955.571 123.255 954.046 124.49 954.046 124.49 954.046 124.49 954.046 124.627 954.046 124.627 954.046 124.627 954.185 124.49 954.324 124.49 954.601 124.49 954.74 124.49 955.017 124.627 955.294 124.765 958.899 126.824 958.899 126.824 958.899 126.824ZM961.395 124.765C965 122.843 965 122.843 965 122.843 964.723 121.608 964.723 121.608 964.723 121.608 964.584 121.608 964.584 121.608 964.584 121.608 964.723 122.02 964.584 122.294 964.584 122.431 964.445 122.706 964.168 122.98 963.752 123.118 962.781 123.667 962.781 123.667 962.781 123.667 962.643 123.667 962.643 123.804 962.504 123.667 962.504 123.667 962.366 123.667 962.227 123.529 961.534 122.294 961.534 122.294 961.534 122.294 961.534 122.157 961.534 122.02 961.534 122.02 961.534 122.02 961.534 122.02 961.672 121.882 962.504 121.471 962.504 121.471 962.504 121.471 962.781 121.333 963.059 121.196 963.198 121.196 963.336 121.333 963.475 121.471 963.613 121.608 963.752 121.608 963.752 121.608 963.752 121.608 962.92 120.098 962.92 120.098 962.92 120.098 962.92 120.235 962.92 120.235 962.92 120.235 962.92 120.51 963.059 120.647 962.92 120.784 962.92 120.922 962.643 121.059 962.366 121.196 961.534 121.745 961.534 121.745 961.534 121.745 961.534 121.745 961.395 121.745 961.395 121.745 961.395 121.745 961.256 121.745 961.256 121.608 960.563 120.51 960.563 120.51 960.563 120.51 960.563 120.373 960.563 120.235 960.563 120.235 960.563 120.235 960.702 120.098 960.702 120.098 961.811 119.412 961.811 119.412 961.811 119.412 962.088 119.275 962.366 119.275 962.504 119.275 962.643 119.275 962.92 119.412 963.059 119.686 963.198 119.549 963.198 119.549 963.198 119.549 962.643 118.725 962.643 118.725 962.643 118.725 959.038 120.647 959.038 120.647 959.038 120.647 959.176 120.784 959.176 120.784 959.176 120.784 959.315 120.647 959.592 120.647 959.731 120.647 959.87 120.647 959.87 120.784 960.008 121.059 961.534 123.804 961.534 123.804 961.534 123.804 961.672 123.941 961.811 124.216 961.672 124.216 961.672 124.353 961.534 124.49 961.256 124.627 961.395 124.765 961.395 124.765 961.395 124.765ZM966.248 119.275C966.248 119.412 966.387 119.412 966.387 119.412 966.387 119.412 966.525 119.412 966.525 119.412 967.08 119.275 967.357 119 967.634 118.725 967.773 118.451 967.773 118.176 967.634 117.765 967.496 117.49 967.357 117.353 967.08 117.216 966.802 117.216 966.387 117.216 965.971 117.353 965.832 117.49 965.693 117.49 965.693 117.627 965.693 117.627 965.693 117.765 965.693 117.902 966.248 119.275 966.248 119.275 966.248 119.275ZM965.971 122.294C967.912 121.471 967.912 121.471 967.912 121.471 967.912 121.333 967.912 121.333 967.912 121.333 967.773 121.333 967.773 121.333 967.773 121.333 967.634 121.471 967.357 121.471 967.219 121.333 967.219 121.333 967.08 121.196 966.941 120.922 966.525 119.824 966.525 119.824 966.525 119.824 966.525 119.824 966.525 119.824 966.525 119.686 966.525 119.686 966.525 119.686 966.664 119.686 967.08 119.549 967.08 119.549 967.08 119.549 967.496 119.686 967.912 119.961 968.328 120.235 968.744 120.373 969.021 120.647 969.437 120.784 970.546 120.373 970.546 120.373 970.546 120.373 970.408 120.235 970.408 120.235 970.408 120.235 970.269 120.373 969.992 120.235 969.576 120.098 969.16 119.961 968.605 119.549 967.773 119 968.05 118.863 968.189 118.588 968.328 118.314 968.466 118.039 968.466 117.765 968.328 117.49 968.189 117.078 967.912 116.941 967.634 116.804 967.219 116.804 966.802 116.804 966.387 116.941 964.168 117.902 964.168 117.902 964.168 117.902 964.168 118.039 964.168 118.039 964.168 118.039 964.445 117.902 964.584 117.902 964.723 117.902 964.861 117.902 965 118.039 965.139 118.314 966.248 121.196 966.248 121.196 966.248 121.196 966.387 121.471 966.387 121.608 966.387 121.745 966.248 121.882 966.109 122.02 965.971 122.02 965.832 122.157 965.832 122.157 965.832 122.157 965.971 122.294 965.971 122.294 965.971 122.294ZM971.378 120.235C971.517 120.235 971.517 120.235 971.517 120.235 971.517 120.098 971.517 120.098 971.517 120.098 971.655 119.961 971.655 119.961 971.655 119.961 971.794 119.961 971.933 119.961 972.071 119.961 972.349 119.961 972.626 119.961 972.765 119.961 973.181 119.824 973.597 119.549 973.735 119.275 974.013 119 974.013 118.725 974.013 118.314 973.874 118.039 973.735 117.765 973.597 117.627 973.458 117.49 973.181 117.353 972.765 117.216 971.933 116.941 971.933 116.941 971.933 116.941 971.655 116.804 971.378 116.804 971.24 116.667 971.101 116.529 971.101 116.392 970.962 116.255 970.962 115.98 970.962 115.843 971.101 115.706 971.24 115.569 971.378 115.431 971.655 115.431 971.933 115.294 972.21 115.294 972.487 115.569 972.626 115.706 972.903 115.843 973.181 116.255 973.319 116.255 973.319 116.255 973.319 116.255 972.765 114.882 972.765 114.882 972.765 114.882 972.626 114.882 972.626 114.882 972.626 114.882 972.626 115.02 972.626 115.02 972.626 115.02 972.626 115.157 972.626 115.157 972.487 115.157 972.487 115.157 972.349 115.157 972.21 115.157 971.933 115.157 971.655 115.157 971.517 115.157 971.101 115.294 970.824 115.431 970.685 115.706 970.408 115.98 970.408 116.255 970.408 116.667 970.546 116.941 970.685 117.078 970.824 117.216 970.962 117.353 971.24 117.49 971.655 117.627 972.487 117.902 972.487 117.902 972.487 117.902 972.765 118.039 972.903 118.176 973.042 118.176 973.181 118.314 973.319 118.451 973.319 118.725 973.319 118.863 973.319 119.137 973.181 119.275 973.042 119.549 972.903 119.686 972.626 119.686 972.349 119.686 972.071 119.686 971.794 119.549 971.517 119.412 971.24 119.137 970.962 118.725 970.824 118.725 970.824 118.725 970.824 118.725 971.378 120.235 971.378 120.235 971.378 120.235ZM975.122 119.275C977.202 119 977.202 119 977.202 119 977.202 118.863 977.202 118.863 977.202 118.863 976.924 119 976.786 118.863 976.647 118.863 976.508 118.725 976.508 118.588 976.508 118.314 976.092 115.294 976.092 115.294 976.092 115.294 975.954 115.02 976.092 114.882 976.092 114.745 976.231 114.608 976.37 114.608 976.647 114.471 976.647 114.333 976.647 114.333 976.647 114.333 974.567 114.608 974.567 114.608 974.567 114.608 974.567 114.745 974.567 114.745 974.567 114.745 974.845 114.745 974.983 114.745 975.122 114.882 975.26 114.882 975.26 115.157 975.26 115.294 975.676 118.451 975.676 118.451 975.676 118.451 975.676 118.725 975.676 118.863 975.538 119 975.538 119.137 975.399 119.137 975.122 119.137 975.122 119.275 975.122 119.275 975.122 119.275ZM979.004 118.863C981.223 118.863 981.223 118.863 981.223 118.863 981.223 118.725 981.223 118.725 981.223 118.725 980.945 118.588 980.668 118.588 980.668 118.588 980.529 118.451 980.529 118.314 980.529 117.902 980.529 114.608 980.529 114.608 980.529 114.608 980.529 114.471 980.529 114.471 980.529 114.471 980.529 114.333 980.668 114.333 980.807 114.333 981.361 114.333 981.639 114.471 981.777 114.608 982.055 114.745 982.055 114.882 982.193 115.294 982.332 115.294 982.332 115.294 982.332 115.294 982.332 114.059 982.332 114.059 982.332 114.059 978.034 114.059 978.034 114.059 978.034 114.059 977.895 115.294 977.895 115.294 977.895 115.294 978.034 115.294 978.034 115.294 978.034 115.294 978.172 114.882 978.172 114.745 978.311 114.608 978.588 114.471 978.866 114.333 979.281 114.333 979.42 114.333 979.42 114.333 979.42 114.333 979.559 114.333 979.698 114.333 979.698 114.333 979.698 114.471 979.698 114.471 979.698 114.608 979.698 117.902 979.698 117.902 979.698 117.902 979.698 118.176 979.698 118.451 979.559 118.588 979.559 118.588 979.281 118.725 979.004 118.725 979.004 118.863 979.004 118.863 979.004 118.863ZM984.412 118.863C986.492 119.137 986.492 119.137 986.492 119.137 986.492 119 986.492 119 986.492 119 986.214 119 986.076 118.863 985.937 118.863 985.937 118.725 985.937 118.588 985.937 118.314 986.076 116.941 986.076 116.941 986.076 116.941 987.601 115.294 987.601 115.294 987.601 115.294 987.74 115.02 987.878 114.882 988.017 114.882 988.155 114.745 988.294 114.745 988.433 114.745 988.433 114.608 988.433 114.608 988.433 114.608 986.908 114.471 986.908 114.471 986.908 114.471 986.908 114.608 986.908 114.608 986.908 114.608 987.046 114.608 987.185 114.608 987.324 114.745 987.324 114.745 987.462 114.745 987.324 114.882 987.324 114.882 987.324 114.882 987.324 115.02 987.324 115.02 987.185 115.157 987.046 115.294 985.937 116.667 985.937 116.667 985.937 116.667 985.105 114.882 985.105 114.882 985.105 114.882 985.105 114.882 985.105 114.882 984.966 114.882 984.966 114.745 984.966 114.608 984.966 114.608 984.966 114.471 984.966 114.471 985.105 114.471 985.105 114.471 985.382 114.471 985.521 114.471 985.521 114.333 985.521 114.333 985.521 114.333 983.302 114.059 983.302 114.059 983.302 114.059 983.302 114.196 983.302 114.196 983.302 114.196 983.441 114.196 983.58 114.196 983.719 114.333 983.857 114.333 983.996 114.471 983.996 114.608 985.244 116.941 985.244 116.941 985.244 116.941 985.105 118.176 985.105 118.176 985.105 118.176 985.105 118.451 985.105 118.588 984.966 118.725 984.828 118.725 984.689 118.725 984.412 118.725 984.412 118.725 984.412 118.725 984.412 118.725 984.412 118.863 984.412 118.863 984.412 118.863ZM991.483 117.627C991.345 118.314 991.206 118.863 991.345 119.412 991.622 119.824 991.899 120.098 992.315 120.373 992.87 120.51 993.286 120.373 993.702 120.098 994.118 119.824 994.395 119.412 994.672 118.725 994.811 118.176 994.95 117.627 994.672 117.078 994.534 116.667 994.256 116.255 993.84 116.118 993.286 115.98 992.87 115.98 992.454 116.255 992.038 116.529 991.76 117.078 991.483 117.627ZM990.79 117.49C990.513 118.176 990.513 118.725 990.79 119.275 991.067 119.961 991.622 120.373 992.315 120.51 993.008 120.784 993.563 120.784 994.118 120.51 994.811 120.235 995.088 119.686 995.366 119 995.643 118.314 995.643 117.627 995.366 117.078 995.088 116.529 994.534 116.118 993.84 115.843 993.147 115.706 992.592 115.706 992.038 115.98 991.345 116.255 990.929 116.667 990.79 117.49ZM995.366 121.471C997.307 122.569 997.307 122.569 997.307 122.569 997.445 122.431 997.445 122.431 997.445 122.431 997.168 122.294 997.029 122.157 996.891 122.02 996.891 121.882 996.891 121.745 997.029 121.471 997.584 120.373 997.584 120.373 997.584 120.373 997.723 120.235 997.723 120.235 997.723 120.235 997.861 120.235 997.861 120.235 997.861 120.235 998.555 120.51 998.555 120.51 998.555 120.51 998.832 120.647 998.971 120.784 999.109 120.922 999.109 121.059 999.109 121.333 998.971 121.608 999.109 121.608 999.109 121.608 999.109 121.608 999.802 120.098 999.802 120.098 999.802 120.098 999.664 120.098 999.664 120.098 999.664 120.098 999.664 120.373 999.525 120.373 999.387 120.51 999.248 120.51 998.971 120.373 998.555 120.235 998 119.961 998 119.961 998 119.961 998 119.961 997.861 119.961 997.861 119.824 997.861 119.824 997.861 119.824 998 119.686 998.555 118.588 998.555 118.588 998.555 118.588 998.555 118.451 998.693 118.314 998.693 118.314 998.832 118.314 998.971 118.314 999.109 118.451 999.941 118.863 999.941 118.863 999.941 118.863 1000.22 119 1000.5 119.137 1000.5 119.412 1000.63 119.549 1000.63 119.824 1000.5 120.098 1000.63 120.098 1000.63 120.098 1000.63 120.098 1001.05 119.137 1001.05 119.137 1001.05 119.137 997.584 117.353 997.584 117.353 997.584 117.353 997.445 117.49 997.445 117.49 997.445 117.49 997.723 117.627 997.861 117.765 997.861 117.902 998 117.902 997.861 118.176 997.861 118.314 996.336 121.196 996.336 121.196 996.336 121.196 996.198 121.333 996.198 121.471 996.059 121.608 995.92 121.608 995.781 121.471 995.504 121.471 995.366 121.471 995.366 121.471 995.366 121.471ZM1001.47 124.902C1003.27 126.137 1003.27 126.137 1003.27 126.137 1003.41 126 1003.41 126 1003.41 126 1003.13 125.863 1002.99 125.725 1002.99 125.588 1002.99 125.451 1002.99 125.314 1003.27 125.039 1005.21 122.294 1005.21 122.294 1005.21 122.294 1005.21 122.157 1005.21 122.157 1005.35 122.157 1005.35 122.157 1005.35 122.157 1005.49 122.294 1006.04 122.569 1006.18 122.843 1006.32 123.118 1006.32 123.255 1006.32 123.529 1006.04 123.804 1006.18 123.941 1006.18 123.941 1006.18 123.941 1006.87 122.98 1006.87 122.98 1006.87 122.98 1003.41 120.51 1003.41 120.51 1003.41 120.51 1002.71 121.471 1002.71 121.471 1002.71 121.471 1002.71 121.471 1002.71 121.471 1002.71 121.471 1002.99 121.196 1003.27 121.059 1003.41 121.059 1003.68 121.059 1003.96 121.196 1004.38 121.471 1004.38 121.471 1004.38 121.471 1004.38 121.471 1004.52 121.608 1004.66 121.608 1004.66 121.745 1004.66 121.745 1004.66 121.745 1004.52 121.882 1002.58 124.627 1002.58 124.627 1002.58 124.627 1002.44 124.902 1002.3 125.039 1002.16 125.039 1002.02 125.039 1001.88 125.039 1001.61 124.765 1001.47 124.902 1001.47 124.902 1001.47 124.902ZM1004.52 127.235C1007.57 129.98 1007.57 129.98 1007.57 129.98 1008.68 129.431 1008.68 129.431 1008.68 129.431 1008.54 129.294 1008.54 129.294 1008.54 129.294 1008.26 129.431 1007.98 129.569 1007.71 129.431 1007.43 129.431 1007.15 129.294 1006.87 129.02 1006.04 128.196 1006.04 128.196 1006.04 128.196 1005.9 128.059 1005.9 128.059 1005.9 127.922 1005.9 127.922 1006.04 127.784 1006.04 127.647 1007.01 126.686 1007.01 126.686 1007.01 126.686 1007.15 126.549 1007.15 126.549 1007.29 126.549 1007.29 126.549 1007.29 126.549 1007.43 126.686 1008.12 127.235 1008.12 127.235 1008.12 127.235 1008.4 127.51 1008.54 127.784 1008.54 127.922 1008.54 128.059 1008.4 128.196 1008.26 128.333 1008.4 128.471 1008.4 128.471 1008.4 128.471 1009.51 127.373 1009.51 127.373 1009.51 127.373 1009.37 127.235 1009.37 127.235 1009.37 127.235 1009.23 127.373 1009.09 127.51 1008.95 127.51 1008.82 127.51 1008.54 127.373 1008.26 127.098 1007.57 126.412 1007.57 126.412 1007.57 126.412 1007.57 126.412 1007.43 126.275 1007.43 126.275 1007.43 126.275 1007.43 126.137 1007.57 126.137 1008.4 125.176 1008.4 125.176 1008.4 125.176 1008.54 125.039 1008.68 125.039 1008.68 125.039 1008.68 125.039 1008.82 125.039 1008.95 125.176 1009.79 126 1009.79 126 1009.79 126 1010.06 126.275 1010.2 126.412 1010.2 126.549 1010.2 126.686 1010.2 126.961 1009.92 127.235 1010.06 127.373 1010.06 127.373 1010.06 127.373 1010.76 126.549 1010.76 126.549 1010.76 126.549 1007.84 123.804 1007.84 123.804 1007.84 123.804 1007.71 123.804 1007.71 123.804 1007.71 123.804 1007.84 124.078 1007.98 124.216 1007.98 124.353 1007.98 124.49 1007.98 124.627 1007.71 124.765 1005.63 127.098 1005.63 127.098 1005.63 127.098 1005.35 127.235 1005.21 127.373 1005.21 127.373 1005.07 127.373 1004.79 127.235 1004.66 127.098 1004.52 127.235 1004.52 127.235 1004.52 127.235ZM1012 133.549C1011.59 133.549 1011.17 133.549 1010.89 133.412 1010.62 133.275 1010.34 133 1010.06 132.725 1009.79 132.314 1009.65 131.902 1009.79 131.353 1009.92 130.941 1010.2 130.392 1010.62 129.98 1011.17 129.569 1011.73 129.431 1012.28 129.431 1012.84 129.431 1013.25 129.569 1013.53 130.118 1013.81 130.392 1013.95 130.667 1013.95 131.078 1013.95 131.353 1013.81 131.765 1013.53 132.176 1013.67 132.176 1013.67 132.176 1013.67 132.176 1014.78 131.216 1014.78 131.216 1014.78 131.216 1014.64 131.078 1014.64 131.078 1014.64 131.078 1014.64 131.078 1014.5 131.078 1014.5 131.078 1014.5 131.078 1014.36 131.078 1014.36 131.078 1014.36 130.941 1014.22 130.804 1014.08 130.529 1013.95 130.255 1013.81 129.98 1013.67 129.843 1013.25 129.294 1012.7 128.882 1012 128.882 1011.31 128.745 1010.76 129.02 1010.2 129.431 1009.51 129.843 1009.23 130.392 1009.23 131.078 1009.09 131.627 1009.37 132.314 1009.79 132.863 1010.06 133.137 1010.34 133.412 1010.76 133.549 1011.03 133.686 1011.45 133.824 1011.87 133.686 1012 133.549 1012 133.549 1012 133.549ZM1011.31 134.922C1012.42 136.706 1012.42 136.706 1012.42 136.706 1012.56 136.569 1012.56 136.569 1012.56 136.569 1012.42 136.431 1012.42 136.157 1012.42 136.157 1012.42 136.02 1012.56 135.882 1012.7 135.745 1013.95 135.059 1013.95 135.059 1013.95 135.059 1013.95 135.059 1013.95 135.059 1014.08 135.059 1014.08 135.059 1014.08 135.059 1014.22 135.196 1015.19 136.843 1015.19 136.843 1015.19 136.843 1015.19 136.98 1015.19 136.98 1015.19 136.98 1015.19 137.118 1015.19 137.118 1015.05 137.118 1013.95 137.804 1013.95 137.804 1013.95 137.804 1013.81 137.941 1013.53 137.941 1013.53 137.941 1013.39 137.941 1013.25 137.804 1013.11 137.529 1012.97 137.529 1012.97 137.529 1012.97 137.529 1014.08 139.451 1014.08 139.451 1014.08 139.451 1014.08 139.314 1014.08 139.314 1014.08 139.314 1013.95 139.176 1013.95 138.902 1013.95 138.765 1014.08 138.627 1014.08 138.627 1014.36 138.49 1017.13 136.843 1017.13 136.843 1017.13 136.843 1017.27 136.706 1017.55 136.706 1017.55 136.706 1017.69 136.843 1017.83 136.98 1017.97 137.118 1018.11 137.118 1018.11 137.118 1018.11 137.118 1017 135.196 1017 135.196 1017 135.196 1017 135.333 1017 135.333 1017 135.333 1017.13 135.608 1017.13 135.745 1017.13 135.882 1017 136.02 1017 136.157 1016.72 136.157 1015.75 136.843 1015.75 136.843 1015.75 136.843 1015.61 136.843 1015.61 136.843 1015.47 136.843 1015.47 136.843 1015.47 136.843 1015.47 136.706 1014.36 135.059 1014.36 135.059 1014.36 135.059 1014.36 134.922 1014.36 134.922 1014.36 134.922 1014.36 134.784 1014.36 134.784 1014.5 134.784 1015.47 134.098 1015.47 134.098 1015.47 134.098 1015.75 133.961 1015.89 133.961 1016.03 133.961 1016.16 134.098 1016.3 134.235 1016.44 134.373 1016.58 134.373 1016.58 134.373 1016.58 134.373 1015.47 132.451 1015.47 132.451 1015.47 132.451 1015.33 132.588 1015.33 132.588 1015.33 132.588 1015.47 132.863 1015.47 133 1015.47 133.137 1015.47 133.275 1015.33 133.412 1015.19 133.549 1012.42 135.059 1012.42 135.059 1012.42 135.059 1012.14 135.196 1012 135.196 1011.87 135.196 1011.73 135.196 1011.59 135.059 1011.45 134.784 1011.31 134.922 1011.31 134.922 1011.31 134.922ZM1015.47 140.686C1018.24 139.863 1018.24 139.863 1018.24 139.863 1015.61 143.98 1015.61 143.98 1015.61 143.98 1015.75 144.118 1015.75 144.118 1015.75 144.118 1019.49 142.882 1019.49 142.882 1019.49 142.882 1019.77 142.882 1019.91 142.882 1019.91 142.882 1020.05 143.02 1020.18 143.157 1020.32 143.431 1020.46 143.294 1020.46 143.294 1020.46 143.294 1019.91 141.784 1019.91 141.784 1019.91 141.784 1019.77 141.784 1019.77 141.784 1019.77 141.784 1019.77 142.059 1019.77 142.196 1019.77 142.333 1019.77 142.471 1019.63 142.471 1019.35 142.608 1016.86 143.431 1016.86 143.431 1016.86 143.431 1019.21 139.725 1019.21 139.725 1019.21 139.725 1018.8 138.627 1018.8 138.627 1018.8 138.627 1018.66 138.627 1018.66 138.627 1018.66 138.627 1018.8 138.765 1018.8 138.902 1018.66 139.039 1018.66 139.176 1018.52 139.314 1018.52 139.451 1015.33 140.412 1015.33 140.412 1015.33 140.412 1015.05 140.549 1014.92 140.549 1014.78 140.412 1014.64 140.412 1014.64 140.275 1014.5 140 1014.36 140 1014.36 140 1014.36 140 1014.92 141.647 1014.92 141.647 1014.92 141.647 1015.05 141.647 1015.05 141.647 1015.05 141.647 1014.92 141.373 1014.92 141.098 1014.92 140.961 1015.05 140.961 1015.19 140.824 1015.47 140.686ZM1018.66 145.902C1017.97 146.039 1017.41 146.314 1017.13 146.588 1016.72 147 1016.58 147.412 1016.72 147.824 1016.72 148.373 1017 148.784 1017.55 148.922 1017.97 149.196 1018.52 149.196 1019.21 149.059 1019.91 148.922 1020.32 148.784 1020.74 148.373 1021.02 148.098 1021.16 147.549 1021.02 147.137 1021.02 146.588 1020.74 146.314 1020.32 146.039 1019.77 145.902 1019.21 145.765 1018.66 145.902ZM1018.52 145.078C1017.69 145.216 1017.13 145.49 1016.86 146.039 1016.44 146.588 1016.3 147.275 1016.44 147.961 1016.58 148.647 1016.86 149.196 1017.41 149.608 1017.97 149.882 1018.52 150.02 1019.35 149.882 1020.05 149.745 1020.6 149.471 1021.02 148.922 1021.29 148.373 1021.43 147.824 1021.29 147.137 1021.16 146.314 1020.88 145.765 1020.32 145.49 1019.77 145.078 1019.21 144.941 1018.52 145.078ZM1017 151.118C1017.13 155.098 1017.13 155.098 1017.13 155.098 1018.38 155.373 1018.38 155.373 1018.38 155.373 1018.38 155.235 1018.38 155.235 1018.38 155.235 1017.97 155.098 1017.83 154.961 1017.55 154.686 1017.41 154.549 1017.41 154.275 1017.41 153.863 1017.41 153.039 1017.41 153.039 1017.41 153.039 1017.41 152.902 1017.41 152.765 1017.41 152.627 1017.41 152.627 1017.55 152.627 1017.83 152.627 1021.02 152.49 1021.02 152.49 1021.02 152.49 1021.29 152.49 1021.43 152.627 1021.57 152.627 1021.57 152.765 1021.71 152.902 1021.71 153.176 1021.71 153.176 1021.71 153.176 1021.71 153.176 1021.85 153.176 1021.85 153.176 1021.85 153.176 1021.85 151.118 1021.85 151.118 1021.85 151.118 1021.71 151.118 1021.71 151.118 1021.71 151.118 1021.71 151.392 1021.57 151.529 1021.57 151.667 1021.43 151.667 1021.29 151.804 1021.02 151.804 1017.97 151.804 1017.97 151.804 1017.97 151.804 1017.69 151.804 1017.41 151.804 1017.27 151.667 1017.27 151.667 1017.13 151.392 1017.13 151.118 1017.13 151.118 1017.13 151.118 1017.13 151.118 1017 151.118 1017 151.118 1017 151.118ZM1019.35 157.02C1018.66 157.02 1018.11 157.02 1017.69 157.294 1017.27 157.569 1017 157.98 1016.86 158.392 1016.86 158.941 1017 159.353 1017.41 159.627 1017.69 160.039 1018.24 160.176 1018.94 160.314 1019.63 160.451 1020.18 160.314 1020.6 160.039 1021.02 159.765 1021.29 159.49 1021.29 158.941 1021.43 158.529 1021.29 158.118 1020.88 157.706 1020.46 157.431 1020.05 157.157 1019.35 157.02ZM1019.49 156.333C1018.66 156.196 1018.11 156.333 1017.55 156.745 1017 157.157 1016.72 157.706 1016.72 158.392 1016.58 159.078 1016.72 159.765 1017.13 160.176 1017.55 160.725 1018.11 161 1018.8 161.137 1019.63 161.137 1020.18 161 1020.74 160.725 1021.16 160.314 1021.57 159.765 1021.57 158.941 1021.71 158.255 1021.57 157.706 1021.16 157.157 1020.74 156.608 1020.18 156.333 1019.49 156.333ZM1015.47 166.216C1016.86 166.627 1016.86 166.627 1016.86 166.627 1017 166.627 1017.13 166.765 1017.27 166.902 1017.27 166.902 1017.27 167.039 1017.13 167.314 1017.27 167.314 1017.27 167.314 1017.27 167.314 1017.83 165.392 1017.83 165.392 1017.83 165.392 1017.69 165.392 1017.69 165.392 1017.69 165.392 1017.69 165.667 1017.55 165.804 1017.41 165.941 1017.41 165.941 1017.27 165.941 1017 165.941 1015.75 165.529 1015.75 165.529 1015.75 165.529 1015.61 165.392 1015.61 165.255 1015.61 164.98 1015.61 164.843 1015.61 164.569 1015.61 164.431 1015.89 163.882 1016.16 163.471 1016.58 163.196 1017.13 163.059 1017.69 163.059 1018.38 163.196 1018.94 163.333 1019.49 163.745 1019.77 164.157 1020.05 164.569 1020.05 164.98 1019.91 165.529 1019.77 165.941 1019.63 166.216 1019.35 166.49 1019.08 166.627 1018.8 166.765 1018.24 166.765 1018.24 166.902 1018.24 166.902 1018.24 166.902 1019.77 167.176 1019.77 167.176 1019.77 167.176 1019.77 167.176 1019.77 167.176 1019.77 167.176 1019.63 167.039 1019.63 167.039 1019.63 167.039 1019.49 166.902 1019.49 166.902 1019.49 166.902 1019.49 166.765 1019.63 166.627 1019.77 166.353 1020.05 166.216 1020.18 165.941 1020.18 165.529 1020.46 164.843 1020.32 164.157 1020.05 163.608 1019.77 163.059 1019.21 162.647 1018.52 162.373 1017.83 162.235 1017.13 162.235 1016.58 162.647 1016.03 162.922 1015.61 163.471 1015.47 164.157 1015.33 164.569 1015.33 164.843 1015.33 165.255 1015.33 165.529 1015.33 165.941 1015.47 166.216ZM1014.08 168C1013.25 169.922 1013.25 169.922 1013.25 169.922 1013.39 170.059 1013.39 170.059 1013.39 170.059 1013.53 169.784 1013.67 169.647 1013.67 169.647 1013.81 169.51 1013.95 169.51 1014.22 169.647 1015.47 170.196 1015.47 170.196 1015.47 170.196 1016.72 172.118 1016.72 172.118 1016.72 172.118 1016.86 172.392 1017 172.529 1017 172.667 1017 172.804 1017 172.941 1017 173.078 1017.13 173.078 1017.13 173.078 1017.13 173.078 1017.69 171.706 1017.69 171.706 1017.69 171.706 1017.55 171.706 1017.55 171.706 1017.55 171.706 1017.41 171.843 1017.41 171.98 1017.27 171.98 1017.27 172.118 1017.13 172.118 1017.13 172.118 1017.13 171.98 1017 171.98 1017 171.98 1017 171.98 1016.86 171.843 1016.86 171.706 1015.89 170.196 1015.89 170.196 1015.89 170.196 1017.83 169.784 1017.83 169.784 1017.83 169.784 1017.83 169.784 1017.83 169.784 1017.83 169.784 1017.97 169.784 1018.11 169.784 1018.11 169.784 1018.24 169.922 1018.24 169.922 1018.24 170.059 1018.24 170.059 1018.24 170.196 1018.11 170.471 1018.24 170.471 1018.24 170.471 1018.24 170.471 1019.08 168.549 1019.08 168.549 1019.08 168.549 1018.94 168.412 1018.94 168.412 1018.94 168.412 1018.94 168.549 1018.8 168.686 1018.8 168.824 1018.66 168.824 1018.52 168.961 1018.38 168.961 1015.75 169.51 1015.75 169.51 1015.75 169.51 1014.5 168.961 1014.5 168.961 1014.5 168.961 1014.36 168.824 1014.22 168.824 1014.22 168.686 1014.08 168.549 1014.22 168.275 1014.22 168.137 1014.22 168.137 1014.22 168.137 1014.22 168.137L1014.08 168Z" fill="#FFFFFF" fill-rule="evenodd"/></g></svg>