<svg width="78" height="78" xmlns="http://www.w3.org/2000/svg" xmlns:xlink="http://www.w3.org/1999/xlink" overflow="hidden"><defs><clipPath id="clip0"><rect x="409" y="359" width="78" height="78"/></clipPath></defs><g clip-path="url(#clip0)" transform="translate(-409 -359)"><path d="M448 360C468.969 360 486 377.031 486 398 486 418.969 468.969 436 448 436 427.031 436 410 418.969 410 398 410 377.031 427.031 360 448 360ZM464.073 413.647C464.073 413.647 464.073 413.647 464.073 413.647 464.179 413.647 464.818 413.647 464.924 413.541 464.924 413.434 464.924 413.221 464.924 413.115 464.818 412.796 464.179 412.05 463.86 412.05 463.754 412.05 463.754 412.157 463.754 412.157 463.647 412.476 463.966 413.008 464.179 413.221 464.073 413.328 464.073 413.434 464.073 413.647ZM431.821 416.415C431.821 416.308 431.714 416.308 431.714 416.308 431.927 415.882 432.14 415.563 432.246 415.244 432.353 415.031 432.353 414.924 432.459 414.818 432.672 414.499 433.204 414.392 433.311 414.073 433.417 413.86 433.311 413.647 433.204 413.541 433.098 413.541 432.992 413.541 432.992 413.434 432.885 413.328 433.098 413.008 433.204 412.902 433.417 412.37 433.204 411.199 432.566 411.199 432.459 411.305 432.14 411.412 432.14 411.625 432.14 411.731 432.14 411.944 432.14 412.05 432.034 412.476 431.821 413.008 431.608 413.434 431.501 413.754 431.501 413.966 431.395 414.179 431.182 414.392 430.969 414.605 430.756 414.711 430.756 414.711 430.65 414.818 430.65 414.818 430.65 414.818 430.65 414.924 430.543 414.924 430.65 415.031 430.756 415.031 430.863 415.031 430.969 415.244 430.863 415.457 430.756 415.563 430.65 415.989 430.011 417.053 430.543 417.479 430.65 417.479 430.863 417.585 430.969 417.479 431.182 417.373 431.395 417.373 431.608 417.266 432.034 417.16 432.672 417.16 432.779 416.734 432.779 416.627 432.779 416.521 432.672 416.521 432.459 415.989 432.14 416.415 431.821 416.415ZM436.717 415.882C436.717 415.776 436.611 415.669 436.504 415.669 436.398 415.669 436.398 415.669 436.291 415.776 436.078 415.882 436.185 416.308 435.972 416.308 435.972 416.415 435.866 416.415 435.759 416.415 435.653 416.521 435.44 416.521 435.227 416.627 434.801 416.947 434.482 417.266 434.056 417.479 433.95 417.585 433.737 417.585 433.63 417.692 433.524 417.798 433.524 417.798 433.417 417.905 433.311 418.011 433.098 417.905 432.992 418.011 432.992 418.543 433.417 419.076 434.056 418.756 434.162 418.756 434.695 417.905 434.801 417.798 434.908 417.692 435.014 417.798 435.12 417.692 435.44 417.692 435.759 417.585 436.078 417.692 436.291 417.692 436.611 417.798 436.717 417.585 436.93 417.266 436.717 416.84 436.717 416.521 436.717 416.308 436.824 415.989 436.717 415.882ZM435.44 417.266C435.653 417.373 436.291 416.734 435.972 416.734 435.866 416.734 435.333 417.16 435.44 417.266ZM438.207 415.989C438.101 415.669 437.994 415.35 437.462 415.35 437.462 415.35 437.462 415.457 437.462 415.457 437.356 415.563 437.356 415.776 437.462 415.989 437.462 416.095 437.356 416.202 437.356 416.308 437.462 416.415 437.462 416.415 437.462 416.521 437.675 416.84 437.782 416.947 437.994 417.16 438.314 417.16 438.74 416.84 438.633 416.415 438.527 416.202 438.314 416.095 438.207 415.989ZM429.16 410.241C428.734 410.454 428.947 410.88 429.053 411.199 429.053 411.412 428.947 411.518 428.947 411.731 428.84 412.583 428.627 413.541 428.734 414.499 428.734 414.711 428.734 415.031 428.734 415.244 428.734 415.563 428.84 416.308 428.84 416.521 428.734 416.734 428.415 416.84 428.308 417.053 427.989 417.479 427.669 417.798 427.244 418.118 426.818 418.437 426.392 418.65 426.286 419.289 426.392 419.395 426.392 419.395 426.605 419.501 426.711 419.501 426.818 419.608 426.924 419.608 427.35 419.501 427.989 418.543 428.202 418.224 428.308 418.118 428.308 417.905 428.415 417.798 428.521 417.585 428.627 417.266 428.84 417.266 429.053 417.373 429.16 417.692 429.373 417.585 429.585 417.479 429.585 417.053 429.585 416.84 429.479 416.521 429.373 416.202 429.373 415.882 429.373 415.669 429.373 415.563 429.373 415.457 429.373 415.244 429.373 415.137 429.373 415.031 429.479 414.286 429.479 413.647 429.692 413.008 429.905 412.583 430.118 412.157 430.224 411.625 430.331 411.518 430.224 411.412 430.118 411.305 430.011 410.773 429.692 410.241 429.16 410.241ZM427.244 416.308C427.35 416.84 426.818 417.266 426.924 417.692 427.031 417.692 427.031 417.692 427.137 417.692 427.244 417.585 427.457 417.373 427.563 417.16 427.669 417.16 427.669 417.053 427.669 416.947 427.989 416.734 428.415 416.627 428.521 416.202 428.521 415.776 427.882 415.457 427.35 415.457 427.244 415.457 427.031 415.563 426.924 415.563 426.605 416.095 427.244 415.989 427.244 416.308ZM439.059 410.986C438.527 410.773 438.207 411.305 437.888 411.199 437.782 411.092 437.782 410.88 437.569 410.88 436.93 410.773 436.93 410.773 436.93 410.773 436.824 410.773 436.611 410.773 436.398 410.773 436.398 410.773 436.291 410.773 436.185 410.88 436.291 411.412 436.717 411.412 436.824 411.731 436.824 411.731 436.824 411.838 436.824 411.838 436.717 411.944 436.504 412.05 436.398 412.157 436.185 412.263 435.972 412.476 435.759 412.583 435.546 412.689 435.227 412.796 435.12 413.008 435.12 413.008 435.12 413.115 435.12 413.115 435.227 413.221 435.333 413.221 435.44 413.221 435.546 413.328 436.398 413.115 436.504 413.008 436.717 412.902 436.824 412.689 436.93 412.583 437.249 412.37 437.462 412.263 437.782 412.157 438.101 411.944 438.207 411.731 438.527 411.625 438.846 411.731 438.846 411.731 438.846 411.731 438.952 411.625 439.378 411.305 439.272 411.092 439.165 410.986 439.165 410.986 439.059 410.986ZM437.782 413.86C437.782 413.647 438.207 413.115 438.42 413.008 438.527 412.796 438.207 412.476 437.994 412.476 437.782 412.583 437.675 412.689 437.462 412.796 437.143 413.008 436.717 413.221 436.398 413.434 436.291 413.541 435.866 413.647 435.759 413.754 435.759 413.86 435.759 413.86 435.759 413.86 436.185 414.073 436.504 413.647 436.93 413.647 436.93 413.754 436.93 413.966 436.824 414.073 436.398 414.286 436.078 414.605 435.866 415.031 435.759 415.031 435.759 415.031 435.759 415.031 435.759 414.924 435.653 414.818 435.546 414.711 435.546 414.605 435.333 414.499 435.333 414.392 435.014 414.392 434.801 414.392 434.801 414.499 434.801 414.818 435.014 415.031 435.12 415.35 435.12 415.457 435.12 415.563 435.12 415.669 435.333 415.669 435.44 415.776 435.546 415.776 435.866 415.776 435.866 415.669 435.972 415.457 435.972 415.35 436.185 415.457 436.291 415.35 436.504 415.244 436.611 415.137 436.717 415.137 436.93 415.031 437.036 414.924 437.249 414.924 437.462 414.711 437.675 414.392 437.782 414.179 437.782 414.073 437.675 413.966 437.782 413.86ZM445.658 413.966C445.552 414.073 445.552 414.073 445.445 414.179 445.232 414.286 445.02 414.286 444.913 414.392 444.487 414.605 444.062 414.711 443.742 414.924 443.636 414.924 443.636 414.924 443.636 414.924 443.636 414.818 443.849 414.286 443.955 414.179 444.062 413.966 444.168 413.754 444.275 413.434 444.487 413.115 444.807 412.796 444.913 412.37 445.02 412.05 444.381 411.625 443.955 411.625 443.636 411.731 443.21 411.731 442.678 411.731 442.146 411.731 442.146 411.731 442.146 411.731 442.039 411.838 441.933 411.838 441.826 411.944 441.613 412.263 442.465 413.115 442.891 413.008 443.21 413.008 443.317 412.689 443.529 412.583 443.636 412.583 443.636 412.583 443.636 412.583 443.636 412.796 443.529 413.008 443.423 413.115 443.317 413.541 443.21 413.966 443.104 414.605 443.104 414.711 442.997 414.924 443.104 415.137 443.104 415.35 442.359 415.457 442.146 415.563 441.613 415.882 441.081 416.095 440.549 416.308 440.123 416.521 439.485 416.627 439.378 416.947 439.378 417.266 440.017 417.798 440.549 417.479 441.294 417.053 442.146 416.521 442.997 416.095 443.21 415.882 443.636 415.457 443.955 415.457 443.955 415.457 443.955 415.457 443.955 415.457 443.955 415.563 443.955 415.563 443.955 415.563 443.849 415.563 443.742 415.669 443.636 415.776 443.742 415.882 443.742 415.882 443.742 415.882 444.168 415.669 444.487 415.457 444.913 415.35 445.02 415.35 445.126 415.244 445.232 415.244 445.658 415.137 446.19 414.924 446.403 414.605 446.51 414.392 445.978 413.966 445.658 413.966ZM461.199 416.308C461.092 416.202 460.56 415.882 460.347 415.882 460.134 415.776 460.028 415.669 459.815 415.669 459.709 415.669 459.602 415.669 459.496 415.669 459.283 416.095 459.709 416.308 459.815 416.521 459.922 416.627 459.922 416.84 460.028 417.053 460.241 417.373 460.773 417.373 461.199 417.266 461.412 417.053 461.412 417.053 461.305 416.734 461.305 416.521 461.305 416.415 461.199 416.308ZM467.373 416.308C467.373 416.308 467.266 416.202 467.16 416.202 466.84 416.308 466.627 416.84 466.202 416.734 466.095 416.415 466.521 416.308 466.415 415.989 466.308 415.669 465.776 415.563 465.35 415.563 465.244 415.563 465.244 415.563 465.244 415.563 465.031 416.202 465.457 416.095 465.669 416.308 465.669 416.521 465.563 416.627 465.457 416.84 465.457 416.947 465.457 417.053 465.457 417.053 465.244 417.266 465.031 417.373 464.711 417.479 464.711 417.585 464.605 417.585 464.605 417.585 464.392 417.692 464.073 417.692 463.86 417.798 463.86 417.905 463.86 417.905 463.86 417.905 464.073 418.011 464.605 418.224 465.031 418.118 465.244 418.011 465.457 417.905 465.669 417.798 465.669 417.798 465.669 417.798 465.669 417.905 465.776 418.011 465.669 418.118 465.669 418.224 465.35 419.076 464.605 418.331 464.073 418.543 464.073 418.65 464.073 418.65 464.073 418.65 464.073 418.969 465.137 419.289 465.669 419.182 465.989 419.076 466.521 418.65 466.415 418.118 466.415 417.905 466.308 417.585 466.202 417.479 466.308 417.373 466.308 417.373 466.415 417.266 466.521 417.266 466.521 417.266 466.521 417.266 466.521 417.373 466.415 417.479 466.415 417.585 466.627 417.585 466.627 417.373 466.734 417.373 466.947 417.266 467.053 417.16 467.16 417.053 467.373 416.947 467.692 416.947 467.798 416.84 467.905 416.521 467.585 416.415 467.373 416.308ZM467.905 412.796C467.692 412.902 467.692 413.221 467.373 413.221 467.373 413.221 467.373 413.221 467.373 413.221 467.266 412.902 467.585 412.689 467.798 412.476 467.798 412.37 467.905 412.263 467.905 412.157 468.011 412.157 468.011 412.05 468.011 412.05 468.118 411.944 468.118 411.944 468.118 411.838 468.224 411.625 468.543 411.412 468.543 411.199 468.65 410.986 468.543 410.773 468.543 410.667 468.224 410.454 468.011 410.56 467.692 410.56 467.692 410.667 467.585 410.773 467.585 410.88 467.585 410.986 467.692 411.092 467.692 411.199 467.692 411.305 467.585 411.518 467.585 411.518 467.373 411.944 467.266 412.263 467.053 412.583 466.947 412.689 466.947 412.689 466.947 412.689 466.947 412.476 466.947 412.263 466.947 412.05 466.947 411.944 466.627 411.944 466.627 411.838 466.627 411.838 466.627 411.731 466.627 411.731 466.734 411.412 466.627 411.199 466.308 411.199 466.308 411.092 466.308 411.092 466.308 410.986 466.627 410.667 466.734 410.347 466.308 410.028 466.202 409.922 466.095 409.815 465.776 409.815 465.776 409.922 465.669 409.922 465.669 409.922 465.563 410.134 465.776 410.241 465.776 410.454 465.776 410.454 465.457 410.986 465.457 411.092 465.35 411.305 464.924 411.199 464.711 411.412 464.711 411.412 464.711 411.412 464.711 411.518 464.818 411.625 465.031 411.625 465.031 411.731 465.031 411.731 465.031 411.731 465.031 411.731 465.031 411.944 464.818 412.05 464.711 412.157 464.711 412.263 464.711 412.263 464.711 412.263 464.711 412.263 464.711 412.37 464.711 412.37 464.818 412.37 464.818 412.37 464.818 412.37 464.924 412.263 465.137 412.157 465.244 412.157 465.35 412.05 465.457 412.05 465.563 412.05 465.669 411.944 465.563 411.838 465.776 411.838 465.776 411.838 465.776 411.838 465.776 411.838 465.882 412.05 465.563 412.37 465.457 412.583 465.35 412.583 465.137 412.583 464.924 412.583 464.924 412.689 464.924 412.796 464.924 412.902 465.031 412.902 465.137 413.008 465.244 413.115 465.244 413.328 464.818 413.754 464.818 414.073 464.818 414.073 464.818 414.073 464.818 414.073 465.031 414.179 465.669 413.541 465.776 413.434 466.202 413.434 466.202 413.434 466.415 413.328 466.521 413.328 466.521 413.328 466.521 413.328 466.627 413.328 466.734 413.434 466.627 413.647 466.521 413.86 466.308 413.86 466.095 413.966 465.776 414.073 464.711 414.818 464.286 414.711 464.179 414.605 464.286 414.499 464.179 414.392 464.073 413.966 463.754 413.221 463.221 413.221 463.115 413.434 463.328 413.647 463.328 413.86 463.541 414.499 463.328 414.605 464.073 414.818 464.073 414.924 464.073 414.924 464.073 415.031 463.966 415.031 463.86 415.031 463.754 415.137 463.754 415.137 463.754 415.137 463.754 415.244 463.86 415.35 464.605 415.457 464.818 415.244 465.244 414.924 465.669 414.605 466.202 414.286 466.308 414.286 466.415 414.179 466.521 414.073 466.521 414.073 466.627 414.073 466.627 414.073 466.84 413.966 467.053 413.754 467.266 413.754 467.373 413.86 467.373 413.86 467.373 413.86 467.266 414.392 466.095 415.031 465.669 415.457 465.669 415.457 465.669 415.457 465.669 415.457 465.669 415.457 465.669 415.457 465.669 415.457 466.095 415.457 466.415 415.137 466.734 415.031 466.947 415.031 467.16 414.924 467.373 414.924 467.905 414.711 468.331 414.179 468.65 413.647 468.756 413.647 468.863 413.541 468.863 413.434 469.076 413.115 468.331 412.583 467.905 412.796ZM466.415 412.902C466.521 412.902 466.627 412.583 466.521 412.37 466.415 412.37 466.415 412.37 466.415 412.37 466.308 412.476 466.202 412.689 466.308 412.902 466.308 412.902 466.308 412.902 466.415 412.902ZM462.583 415.563C462.583 415.669 462.476 415.669 462.37 415.776 462.37 415.882 462.37 415.989 462.37 416.095 462.263 416.308 461.944 416.627 462.05 416.947 462.05 417.053 462.476 417.373 462.689 417.266 463.115 417.053 463.328 415.563 462.583 415.563ZM454.919 411.625C454.706 411.412 454.387 411.412 454.067 411.518 453.961 411.625 453.854 411.731 453.641 411.838 453.322 412.05 453.003 412.157 452.683 412.37 452.577 412.476 452.045 412.796 451.938 412.689 451.938 412.476 452.045 412.157 452.045 412.05 452.258 412.05 452.364 411.944 452.471 411.944 452.896 411.731 453.748 411.199 453.961 410.773 453.854 410.454 453.429 410.134 453.109 410.241 452.79 410.241 452.577 410.454 452.364 410.667 452.151 410.56 452.364 410.028 451.832 409.922 451.619 410.134 451.619 410.454 451.619 410.773 451.619 410.88 451.619 410.986 451.619 410.986 451.619 411.199 451.3 411.412 451.193 411.518 451.193 411.518 451.193 411.518 451.087 411.518 450.98 411.199 450.98 410.667 450.448 410.773 450.342 410.986 450.448 411.092 450.448 411.305 450.342 411.412 450.342 411.518 450.235 411.625 450.235 411.731 450.235 411.944 450.235 412.05 450.022 412.263 449.384 412.263 449.064 412.476 448.958 412.796 449.597 413.221 449.916 413.115 450.129 413.115 450.129 413.008 450.342 413.008 450.448 413.008 450.555 413.328 450.874 413.221 450.98 413.221 450.98 413.115 451.193 413.115 451.193 413.115 451.193 413.115 451.193 413.115 451.193 413.115 451.193 413.221 451.193 413.221 451.087 413.434 450.342 413.754 450.129 413.86 449.597 414.179 449.064 414.392 448.639 414.711 448.319 414.924 448 415.137 447.787 415.35 447.468 415.457 446.616 415.882 446.723 416.308 446.723 416.308 446.723 416.308 446.723 416.308 446.936 416.415 447.148 416.308 447.255 416.308 447.468 416.308 447.681 416.202 447.894 416.202 448.426 415.989 448.639 415.669 449.064 415.35 449.171 415.244 449.384 415.137 449.597 415.031 449.703 414.818 449.916 414.605 450.235 414.605 450.235 414.605 450.235 414.605 450.235 414.605 450.129 414.924 450.022 415.137 450.235 415.457 450.661 415.457 450.661 415.031 450.874 414.924 451.087 414.818 451.193 414.711 451.406 414.605 451.406 414.605 451.513 414.499 451.619 414.499 451.619 414.605 451.619 414.605 451.619 414.605 451.619 414.711 451.513 414.711 451.406 414.711 451.406 415.031 451.3 415.244 450.98 415.35 450.874 415.35 450.768 415.35 450.661 415.563 450.661 415.563 450.661 415.563 450.661 415.563 450.874 415.776 450.98 415.669 451.193 415.776 451.193 415.776 451.193 415.776 451.193 415.882 451.193 415.882 451.193 415.989 451.193 415.989 451.193 416.095 450.874 416.095 450.874 416.095 450.661 416.415 451.087 416.415 451.193 416.627 451.193 416.627 451.193 416.734 451.193 416.734 451.087 416.84 450.874 416.947 450.874 416.947 450.768 417.266 451.3 417.373 451.087 417.692 450.98 417.798 450.022 418.118 449.916 418.118 449.81 418.118 449.703 418.011 449.597 418.118 449.064 418.437 449.916 418.969 450.235 419.076 450.342 418.863 450.342 418.543 450.555 418.437 450.768 418.437 451.087 418.65 451.3 418.756 451.406 418.863 451.406 418.863 451.513 418.969 452.045 419.076 451.725 418.543 451.832 418.331 451.938 418.118 452.79 417.798 453.003 417.692 453.216 417.373 452.683 416.947 452.471 416.84 452.151 417.053 452.258 417.585 451.938 417.798 451.938 417.798 451.938 417.798 451.832 417.798 451.832 417.692 451.832 417.692 451.832 417.692 451.725 417.16 451.938 416.734 452.151 416.308 452.151 416.095 452.471 415.882 452.364 415.563 452.364 415.457 452.364 415.35 452.364 415.244 452.258 415.137 452.151 415.137 452.045 415.137 452.045 414.924 451.938 414.818 451.832 414.711 451.832 414.711 451.832 414.711 451.832 414.711 451.938 414.711 451.938 414.711 452.045 414.711 452.045 414.711 452.045 414.711 452.151 414.711 452.151 414.499 452.045 414.392 452.151 414.286 452.151 414.179 452.258 414.179 452.258 414.179 452.577 413.966 453.109 413.647 453.216 413.328 453.216 413.115 452.79 412.796 452.471 413.008 452.364 413.008 452.364 413.115 452.258 413.115 452.151 413.115 452.151 413.115 452.151 413.115 452.258 413.115 452.258 413.115 452.258 413.115 452.471 412.902 452.79 412.689 453.109 412.583 453.216 412.583 453.322 412.583 453.429 412.583 453.535 412.476 453.748 412.476 453.854 412.37 454.067 412.263 454.28 412.37 454.493 412.263 454.599 412.157 455.025 411.944 454.919 411.625ZM452.683 410.773C452.471 410.986 451.938 411.092 452.151 411.518 452.258 411.518 452.258 411.518 452.258 411.518 452.364 411.305 452.79 410.986 452.683 410.773 452.683 410.773 452.683 410.773 452.683 410.773ZM451.193 418.224C451.193 418.118 451.193 418.011 451.193 417.905 451.193 417.905 451.193 417.905 451.087 417.905 451.087 417.905 451.087 417.905 451.087 417.905 450.874 418.011 450.768 418.011 450.768 418.224 450.768 418.224 450.768 418.331 450.768 418.331 450.98 418.331 451.087 418.331 451.193 418.224ZM451.087 412.05C451.087 412.05 451.087 412.157 451.193 412.157 451.3 412.157 451.3 412.157 451.3 412.157 451.406 412.157 451.513 411.944 451.406 411.838 451.406 411.838 451.406 411.838 451.406 411.838 451.3 411.838 451.193 411.944 451.087 412.05ZM451.193 412.689C451.193 412.689 451.193 412.583 451.193 412.476 451.193 412.476 451.193 412.476 451.087 412.476 451.087 412.583 451.087 412.583 451.087 412.583 451.087 412.583 451.087 412.689 451.087 412.689 451.193 412.689 451.087 412.689 451.193 412.689 451.193 412.689 451.193 412.689 451.193 412.689ZM450.98 414.392C451.193 414.286 452.151 413.647 452.151 413.434 452.151 413.434 452.151 413.434 452.045 413.434 451.832 413.541 451.832 413.434 451.725 413.434 451.406 413.541 450.768 413.966 450.874 414.286 450.98 414.392 450.98 414.392 450.98 414.392ZM460.347 412.796C460.241 412.583 459.922 412.476 459.709 412.583 459.389 412.796 459.283 413.221 458.857 413.434 458.857 413.434 458.751 413.647 458.538 413.541 458.431 413.434 458.538 413.221 458.538 413.008 458.538 412.583 458.644 412.263 458.538 411.838 458.538 411.518 457.58 410.986 457.26 410.88 457.154 410.88 457.154 410.88 457.154 410.88 456.728 411.518 457.154 411.838 457.367 412.263 457.473 412.476 457.686 414.073 457.58 414.392 457.473 414.499 456.941 414.818 456.728 414.924 456.196 415.244 455.77 415.563 455.238 415.776 455.025 415.882 454.812 415.989 454.599 416.095 454.387 416.095 454.28 415.989 454.174 416.095 453.961 416.84 454.387 417.16 455.025 416.947 455.557 416.734 455.877 416.415 456.196 416.095 456.409 415.882 456.941 415.457 457.26 415.244 457.367 415.244 457.367 415.244 457.367 415.244 457.473 415.563 457.367 415.882 457.26 416.095 456.941 416.627 456.515 417.16 455.77 417.373 455.451 417.479 455.025 417.373 454.812 417.692 454.812 417.692 454.919 417.692 454.919 417.798 455.132 417.798 455.557 417.798 455.877 417.692 455.983 417.798 456.09 417.798 456.196 417.798 457.048 417.585 457.473 417.266 457.899 416.627 458.006 416.415 458.112 416.308 458.218 416.095 458.325 415.669 458.325 415.244 458.431 414.924 458.538 414.711 458.431 414.605 458.538 414.499 458.644 414.286 458.857 414.179 459.07 414.073 459.283 413.966 459.389 413.86 459.496 413.754 459.602 413.647 459.815 413.541 460.028 413.434 460.134 413.328 460.454 413.115 460.347 412.796ZM440.443 393.21C448.532 393.21 448.532 393.21 448.532 393.21 448.532 391.933 448.532 391.933 448.532 391.933 440.443 391.933 440.443 391.933 440.443 391.933 440.443 393.21 440.443 393.21 440.443 393.21ZM440.443 400.555C448.532 400.555 448.532 400.555 448.532 400.555 448.532 399.277 448.532 399.277 448.532 399.277 440.443 399.277 440.443 399.277 440.443 399.277 440.443 400.555 440.443 400.555 440.443 400.555ZM433.524 385.759C433.524 388.207 433.524 388.207 433.524 388.207 451.193 388.101 451.193 388.101 451.193 388.101 452.364 388.101 453.854 388.527 454.493 389.272 440.336 389.272 440.336 389.272 440.336 389.272 440.336 390.23 440.336 390.23 440.336 390.23 455.132 390.23 455.132 390.23 455.132 390.23 455.877 392.039 454.599 394.807 452.258 395.02 433.524 395.02 433.524 395.02 433.524 395.02 433.524 397.468 433.524 397.468 433.524 397.468 452.471 397.468 452.471 397.468 452.471 397.468 455.557 397.574 456.303 402.045 452.471 402.364 433.524 402.364 433.524 402.364 433.524 402.364 433.417 405.025 433.417 405.025 433.417 405.025 459.389 405.025 459.389 405.025 459.389 405.025 460.773 405.132 464.711 403.535 464.073 399.171 463.754 397.361 462.263 395.765 460.454 395.232 461.092 395.02 462.796 393.529 463.115 391.613 463.434 388.846 461.731 385.866 458.006 385.759 433.524 385.759 433.524 385.759 433.524 385.759ZM448 362.448C438.207 362.448 429.266 366.493 422.88 372.88 416.387 379.373 412.448 388.207 412.448 398 412.448 407.793 416.387 416.734 422.88 423.12 429.266 429.613 438.207 433.552 448 433.552 457.793 433.552 466.734 429.613 473.12 423.12 479.507 416.734 483.552 407.793 483.552 398 483.552 388.207 479.507 379.373 473.12 372.88 466.734 366.493 457.793 362.448 448 362.448ZM472.162 373.944C465.989 367.77 457.367 363.938 448 363.938 438.527 363.938 430.011 367.77 423.838 373.944 417.664 380.118 413.832 388.633 413.832 398 413.832 407.473 417.664 415.989 423.838 422.162 430.011 428.336 438.527 432.168 448 432.168 457.367 432.168 465.989 428.336 472.162 422.162 478.336 415.989 482.062 407.473 482.062 398 482.062 388.633 478.336 380.118 472.162 373.944ZM443.636 424.291C443.636 420.992 443.636 420.992 443.636 420.992 442.678 420.992 442.678 420.992 442.678 420.992 442.678 421.311 442.678 421.311 442.678 421.311 443.21 421.311 443.21 421.311 443.21 421.311 443.21 424.291 443.21 424.291 443.21 424.291 443.636 424.291 443.636 424.291 443.636 424.291ZM446.297 422.908C446.51 422.908 446.616 422.801 446.829 422.695 446.936 422.482 447.042 422.269 447.042 422.056 447.042 421.843 446.936 421.63 446.829 421.524 446.616 421.311 446.51 421.204 446.19 421.204 445.978 421.204 445.871 421.311 445.658 421.524 445.552 421.63 445.445 421.843 445.445 422.056 445.445 422.269 445.552 422.482 445.658 422.695 445.871 422.801 445.978 422.908 446.297 422.908ZM446.19 424.291C446.936 423.12 446.936 423.12 446.936 423.12 446.936 423.12 446.936 423.12 446.936 423.014 447.255 422.695 447.361 422.269 447.361 422.056 447.361 421.737 447.255 421.524 447.042 421.311 446.829 421.098 446.616 420.992 446.297 420.992 445.978 420.992 445.658 421.098 445.445 421.311 445.232 421.524 445.126 421.737 445.126 422.056 445.126 422.375 445.232 422.695 445.445 422.908 445.658 423.12 445.871 423.227 446.19 423.227 446.19 423.227 446.297 423.227 446.297 423.12 446.403 423.12 446.51 423.12 446.51 423.12 445.765 424.291 445.765 424.291 445.765 424.291 446.19 424.291 446.19 424.291 446.19 424.291ZM449.171 422.482C448.958 422.482 448.745 422.482 448.639 422.695 448.426 422.801 448.426 423.014 448.426 423.227 448.426 423.546 448.426 423.653 448.639 423.866 448.745 424.078 448.958 424.078 449.171 424.078 449.384 424.078 449.597 424.078 449.703 423.866 449.916 423.759 449.916 423.546 449.916 423.227 449.916 423.014 449.916 422.801 449.703 422.695 449.597 422.482 449.384 422.482 449.171 422.482ZM449.277 420.992C448.532 422.162 448.532 422.162 448.532 422.162 448.532 422.162 448.426 422.269 448.426 422.269 448.213 422.695 448 423.014 448 423.333 448 423.653 448.106 423.866 448.319 424.078 448.532 424.291 448.852 424.398 449.171 424.398 449.49 424.398 449.81 424.291 450.022 424.078 450.235 423.866 450.342 423.546 450.342 423.227 450.342 422.908 450.235 422.695 450.022 422.482 449.81 422.269 449.597 422.162 449.277 422.162 449.171 422.162 449.171 422.162 449.064 422.162 449.064 422.162 448.958 422.162 448.852 422.162 449.703 420.992 449.703 420.992 449.703 420.992 449.277 420.992 449.277 420.992 449.277 420.992ZM451.3 423.227C451.3 423.546 451.3 423.759 451.513 423.866 451.619 424.078 451.832 424.078 452.045 424.078 452.364 424.078 452.471 424.078 452.683 423.866 452.79 423.759 452.896 423.546 452.896 423.227 452.896 422.056 452.896 422.056 452.896 422.056 452.896 421.843 452.79 421.63 452.683 421.417 452.471 421.311 452.364 421.204 452.045 421.204 451.832 421.204 451.619 421.311 451.513 421.417 451.3 421.63 451.3 421.843 451.3 422.162 451.3 423.227 451.3 423.227 451.3 423.227ZM450.98 423.12C450.98 423.333 450.98 423.546 450.98 423.653 450.98 423.759 451.087 423.866 451.087 423.972 451.3 424.078 451.406 424.185 451.513 424.291 451.725 424.398 451.832 424.398 452.045 424.398 452.258 424.398 452.471 424.398 452.577 424.291 452.79 424.185 452.896 424.078 453.003 423.972 453.109 423.866 453.109 423.759 453.109 423.653 453.216 423.546 453.216 423.333 453.216 423.227 453.216 422.162 453.216 422.162 453.216 422.162 453.216 421.737 453.109 421.524 452.896 421.311 452.683 421.098 452.364 420.992 452.045 420.992 451.832 420.992 451.725 420.992 451.513 421.098 451.406 421.098 451.3 421.204 451.087 421.417 451.087 421.524 450.98 421.63 450.98 421.737 450.98 421.843 450.98 421.95 450.98 422.162 450.98 423.12 450.98 423.12 450.98 423.12ZM421.496 411.199C421.602 411.092 421.602 411.092 421.602 411.092 421.709 410.986 421.602 410.986 421.602 410.88 421.602 410.773 421.602 410.773 421.602 410.773 421.389 410.454 421.283 410.241 421.07 410.134 420.857 410.028 420.644 410.028 420.431 410.134 420.218 410.134 420.112 410.347 420.006 410.56 420.006 410.667 420.006 410.986 420.218 411.305 420.218 411.412 420.325 411.518 420.325 411.625 420.431 411.625 420.538 411.625 420.644 411.518 421.496 411.199 421.496 411.199 421.496 411.199ZM423.092 410.454C423.199 410.347 423.199 410.347 423.199 410.241 423.305 410.241 423.199 410.134 423.199 409.922 423.092 409.815 423.092 409.815 423.092 409.815 422.986 409.496 422.773 409.389 422.56 409.283 422.454 409.176 422.241 409.176 421.922 409.283 421.709 409.389 421.602 409.496 421.496 409.709 421.496 410.028 421.496 410.241 421.709 410.56 421.709 410.773 421.709 410.773 421.709 410.773 421.815 410.88 421.815 410.88 421.922 410.986 421.922 410.986 421.922 410.986 422.028 410.88 423.092 410.454 423.092 410.454 423.092 410.454ZM423.944 411.305C423.305 409.709 423.305 409.709 423.305 409.709 423.092 409.283 422.88 408.964 422.56 408.751 422.347 408.538 422.028 408.538 421.709 408.751 421.496 408.751 421.283 408.964 421.283 409.176 421.176 409.389 421.176 409.602 421.176 409.922 421.07 409.709 420.857 409.602 420.751 409.496 420.538 409.496 420.325 409.496 420.218 409.602 419.899 409.709 419.793 409.815 419.686 410.134 419.686 410.454 419.793 410.773 419.899 411.199 420.644 412.796 420.644 412.796 420.644 412.796 420.751 412.689 420.751 412.689 420.751 412.689 420.644 412.476 420.644 412.37 420.644 412.263 420.644 412.157 420.751 412.05 420.964 412.05 423.199 410.986 423.199 410.986 423.199 410.986 423.412 410.986 423.518 410.88 423.625 410.986 423.731 410.986 423.731 411.092 423.838 411.305 423.944 411.305 423.944 411.305 423.944 411.305ZM422.347 407.686C421.496 404.706 421.496 404.706 421.496 404.706 420.538 404.599 420.538 404.599 420.538 404.599 420.538 404.706 420.538 404.706 420.538 404.706 420.857 404.812 421.07 404.812 421.176 405.025 421.283 405.132 421.389 405.345 421.496 405.664 421.815 406.515 421.815 406.515 421.815 406.515 421.815 406.622 421.815 406.622 421.815 406.728 421.709 406.728 421.709 406.728 421.496 406.835 420.431 407.154 420.431 407.154 420.431 407.154 420.431 407.154 420.325 407.154 420.325 407.154 420.325 407.154 420.325 407.048 420.218 407.048 420.112 406.303 420.112 406.303 420.112 406.303 420.006 405.983 420.006 405.877 420.006 405.77 420.112 405.664 420.218 405.557 420.431 405.451 420.325 405.345 420.325 405.345 420.325 405.345 419.154 405.664 419.154 405.664 419.154 405.664 419.154 405.77 419.154 405.77 419.154 405.77 419.367 405.77 419.473 405.77 419.58 405.877 419.686 405.877 419.793 406.09 419.899 406.303 420.112 407.048 420.112 407.048 420.112 407.048 420.112 407.154 420.112 407.154 420.112 407.154 420.112 407.26 420.006 407.26 419.899 407.26 419.048 407.58 419.048 407.58 419.048 407.58 418.941 407.58 418.835 407.58 418.728 407.58 418.728 407.58 418.728 407.473 418.728 407.367 418.409 406.515 418.409 406.515 418.409 406.515 418.303 406.196 418.303 405.983 418.409 405.877 418.409 405.77 418.622 405.664 418.835 405.557 418.728 405.451 418.728 405.451 418.728 405.451 417.983 405.77 417.983 405.77 417.983 405.77 418.835 408.751 418.835 408.751 418.835 408.751 418.941 408.751 418.941 408.751 418.941 408.751 418.941 408.538 418.941 408.325 418.941 408.218 419.048 408.218 419.154 408.112 419.26 408.112 421.602 407.367 421.602 407.367 421.602 407.367 421.815 407.367 421.922 407.367 422.028 407.367 422.134 407.473 422.241 407.58 422.241 407.793 422.347 407.686 422.347 407.686 422.347 407.686ZM421.283 403.854C420.964 402.258 420.964 402.258 420.964 402.258 420.857 402.258 420.857 402.258 420.857 402.258 420.857 402.471 420.857 402.577 420.857 402.683 420.751 402.79 420.644 402.79 420.431 402.896 418.09 403.216 418.09 403.216 418.09 403.216 417.877 403.322 417.77 403.216 417.664 403.216 417.557 403.109 417.557 403.003 417.451 402.79 417.345 402.79 417.345 402.79 417.345 402.79 417.664 404.493 417.664 404.493 417.664 404.493 417.77 404.387 417.77 404.387 417.77 404.387 417.77 404.174 417.77 404.067 417.77 403.961 417.877 403.961 417.983 403.854 418.196 403.854 420.538 403.429 420.538 403.429 420.538 403.429 420.751 403.429 420.857 403.429 420.964 403.535 421.07 403.535 421.07 403.641 421.176 403.854 421.283 403.854 421.283 403.854 421.283 403.854ZM417.025 399.916C417.132 401.513 417.132 401.513 417.132 401.513 417.238 401.513 417.238 401.513 417.238 401.513 417.238 401.3 417.345 401.193 417.345 401.087 417.451 400.98 417.557 400.98 417.77 400.98 420.325 400.768 420.325 400.768 420.325 400.768 420.431 400.768 420.538 400.768 420.538 400.874 420.644 400.874 420.644 400.874 420.644 400.98 420.644 401.087 420.644 401.193 420.431 401.193 420.431 401.3 420.431 401.3 420.431 401.3 420.325 401.3 420.325 401.3 420.218 401.406 420.218 401.406 420.218 401.513 420.218 401.619 420.218 401.619 420.218 401.725 420.325 401.725 420.325 401.832 420.431 401.832 420.431 401.832 420.538 401.832 420.751 401.725 420.751 401.619 420.857 401.513 420.857 401.3 420.857 401.087 420.857 400.768 420.751 400.555 420.538 400.448 420.325 400.235 420.112 400.235 419.686 400.235 417.77 400.342 417.77 400.342 417.77 400.342 417.557 400.342 417.345 400.342 417.345 400.342 417.238 400.235 417.238 400.129 417.132 399.916 417.025 399.916 417.025 399.916 417.025 399.916ZM420.644 399.064C420.644 397.361 420.644 397.361 420.644 397.361 420.538 397.361 420.538 397.361 420.538 397.361 420.538 397.574 420.538 397.787 420.431 397.894 420.325 397.894 420.218 398 420.006 398 417.557 398 417.557 398 417.557 398 417.451 398 417.238 397.894 417.238 397.894 417.132 397.787 417.132 397.681 417.132 397.361 417.025 397.361 417.025 397.361 417.025 397.361 417.025 399.064 417.025 399.064 417.025 399.064 417.132 399.064 417.132 399.064 417.132 399.064 417.132 398.852 417.132 398.745 417.238 398.639 417.238 398.532 417.451 398.532 417.557 398.532 420.006 398.532 420.006 398.532 420.006 398.532 420.218 398.532 420.325 398.532 420.431 398.639 420.538 398.745 420.538 398.852 420.538 399.064 420.644 399.064 420.644 399.064 420.644 399.064ZM420.006 395.978C417.77 395.658 417.77 395.658 417.77 395.658 420.964 393.636 420.964 393.636 420.964 393.636 421.07 393.529 421.07 393.529 421.07 393.529 417.983 393.104 417.983 393.104 417.983 393.104 417.77 393.104 417.664 392.997 417.664 392.997 417.557 392.891 417.557 392.784 417.557 392.571 417.451 392.465 417.451 392.465 417.451 392.465 417.345 393.849 417.345 393.849 417.345 393.849 417.451 393.849 417.451 393.849 417.451 393.849 417.451 393.636 417.557 393.529 417.557 393.423 417.664 393.317 417.77 393.317 417.983 393.423 419.899 393.636 419.899 393.636 419.899 393.636 417.025 395.445 417.025 395.445 417.025 395.445 416.919 396.403 416.919 396.403 416.919 396.403 417.025 396.403 417.025 396.403 417.025 396.403 417.025 396.297 417.132 396.19 417.238 396.084 417.238 395.978 417.345 395.978 417.451 395.871 420.006 396.297 420.006 396.297 420.006 396.297 420.218 396.297 420.325 396.297 420.431 396.403 420.431 396.51 420.431 396.616 420.431 396.829 420.538 396.829 420.538 396.829 420.538 396.829 420.751 395.552 420.751 395.552 420.751 395.552 420.644 395.552 420.644 395.552 420.644 395.552 420.538 395.765 420.538 395.871 420.431 395.978 420.431 395.978 420.218 396.084 420.006 395.978ZM421.815 388.952C420.751 388.633 420.751 388.633 420.751 388.633 420.644 388.633 420.538 388.527 420.431 388.42 420.431 388.42 420.431 388.314 420.538 388.101 420.431 388.101 420.431 388.101 420.431 388.101 419.899 389.591 419.899 389.591 419.899 389.591 420.006 389.591 420.006 389.591 420.006 389.591 420.112 389.378 420.218 389.272 420.218 389.165 420.325 389.165 420.431 389.165 420.644 389.165 421.602 389.485 421.602 389.485 421.602 389.485 421.709 389.591 421.709 389.804 421.709 389.91 421.709 390.017 421.709 390.23 421.602 390.336 421.496 390.762 421.283 391.081 420.857 391.294 420.538 391.401 420.112 391.401 419.58 391.294 419.048 391.081 418.728 390.868 418.515 390.549 418.303 390.23 418.196 389.804 418.409 389.378 418.515 389.059 418.622 388.846 418.835 388.74 419.048 388.633 419.26 388.527 419.686 388.527 419.686 388.42 419.686 388.42 419.686 388.42 418.622 388.101 418.622 388.101 418.622 388.101 418.515 388.207 418.515 388.207 418.515 388.207 418.622 388.207 418.622 388.314 418.622 388.314 418.728 388.314 418.728 388.42 418.728 388.42 418.728 388.42 418.622 388.527 418.515 388.74 418.303 388.952 418.196 389.165 418.196 389.378 417.983 390.017 417.983 390.443 418.303 390.975 418.515 391.401 418.835 391.72 419.473 391.933 420.006 392.039 420.431 392.039 420.857 391.72 421.283 391.507 421.602 391.081 421.815 390.549 421.922 390.23 421.922 390.017 421.922 389.697 421.922 389.485 421.922 389.272 421.815 388.952ZM419.686 385.546C419.793 385.333 419.899 385.227 420.006 385.227 420.112 385.227 420.325 385.333 420.644 385.44 421.815 386.078 421.815 386.078 421.815 386.078 422.028 386.185 422.241 386.291 422.454 386.291 422.667 386.398 422.773 386.398 422.986 386.291 423.092 386.291 423.305 386.185 423.412 385.972 423.625 385.866 423.731 385.653 423.838 385.44 424.05 385.014 424.157 384.588 424.05 384.269 423.944 383.95 423.625 383.63 423.199 383.311 421.922 382.672 421.922 382.672 421.922 382.672 421.709 382.566 421.602 382.459 421.496 382.353 421.496 382.246 421.496 382.14 421.602 381.927 421.496 381.927 421.496 381.927 421.496 381.927 420.857 382.992 420.857 382.992 420.857 382.992 420.964 383.098 420.964 383.098 420.964 383.098 421.07 382.885 421.176 382.779 421.283 382.779 421.389 382.779 421.602 382.779 421.709 382.885 423.092 383.63 423.092 383.63 423.092 383.63 423.518 383.843 423.731 384.056 423.838 384.375 423.944 384.588 423.838 384.908 423.731 385.227 423.518 385.546 423.305 385.759 423.092 385.759 422.773 385.866 422.454 385.759 422.134 385.546 420.751 384.801 420.751 384.801 420.751 384.801 420.538 384.695 420.431 384.588 420.325 384.588 420.325 384.482 420.325 384.269 420.431 384.162 420.325 384.056 420.325 384.056 420.325 384.056 419.58 385.546 419.58 385.546 419.58 385.546 419.686 385.546 419.686 385.546 419.686 385.546ZM424.902 382.14C423.092 380.65 423.092 380.65 423.092 380.65 426.924 380.65 426.924 380.65 426.924 380.65 427.031 380.543 427.031 380.543 427.031 380.543 424.583 378.627 424.583 378.627 424.583 378.627 424.476 378.521 424.37 378.415 424.37 378.308 424.37 378.202 424.476 378.095 424.583 377.882 424.476 377.776 424.476 377.776 424.476 377.776 423.625 378.84 423.625 378.84 423.625 378.84 423.731 378.947 423.731 378.947 423.731 378.947 423.944 378.734 424.05 378.627 424.05 378.627 424.157 378.627 424.263 378.627 424.476 378.84 425.966 380.011 425.966 380.011 425.966 380.011 422.667 380.118 422.667 380.118 422.667 380.118 422.028 380.863 422.028 380.863 422.028 380.863 422.134 380.863 422.134 380.863 422.134 380.863 422.241 380.863 422.241 380.756 422.347 380.756 422.454 380.756 422.56 380.65 422.773 380.756 424.689 382.353 424.689 382.353 424.689 382.353 424.902 382.459 425.008 382.566 425.008 382.672 425.008 382.779 424.902 382.885 424.796 383.098 424.902 383.098 424.902 383.098 424.902 383.098 425.754 382.14 425.754 382.14 425.754 382.14 425.647 382.034 425.647 382.034 425.647 382.034 425.434 382.246 425.328 382.246 425.221 382.246 425.221 382.353 425.008 382.246 424.902 382.14ZM427.669 379.798C428.84 378.521 428.84 378.521 428.84 378.521 428.734 378.521 428.734 378.521 428.734 378.521 428.627 378.627 428.415 378.734 428.415 378.734 428.308 378.734 428.202 378.627 427.989 378.521 426.286 376.818 426.286 376.818 426.286 376.818 426.073 376.711 426.073 376.605 426.073 376.499 426.073 376.392 426.179 376.286 426.286 376.073 426.179 376.073 426.179 376.073 426.179 376.073 425.008 377.244 425.008 377.244 425.008 377.244 425.115 377.35 425.115 377.35 425.115 377.35 425.221 377.137 425.434 377.031 425.541 377.031 425.647 377.031 425.754 377.137 425.86 377.244 427.563 378.947 427.563 378.947 427.563 378.947 427.776 379.053 427.776 379.16 427.776 379.266 427.776 379.373 427.776 379.479 427.563 379.692 427.669 379.798 427.669 379.798 427.669 379.798ZM430.65 376.924C430.756 376.924 430.756 376.924 430.756 376.924 430.011 373.625 430.011 373.625 430.011 373.625 430.011 373.412 429.905 373.199 430.011 373.092 430.011 372.986 430.011 372.88 430.118 372.88 430.011 372.773 430.011 372.773 430.011 372.773 429.16 373.412 429.16 373.412 429.16 373.412 429.266 373.518 429.266 373.518 429.266 373.518 429.373 373.412 429.479 373.412 429.479 373.412 429.585 373.412 429.692 373.412 429.692 373.412 429.692 373.518 429.692 373.518 429.798 373.625 429.798 373.625 429.798 373.731 429.798 373.838 430.331 376.073 430.331 376.073 430.331 376.073 429.479 375.647 428.947 375.328 428.521 375.115 428.202 374.902 427.989 374.796 427.989 374.689 427.882 374.689 427.882 374.583 427.989 374.583 427.989 374.476 428.095 374.37 428.202 374.263 428.095 374.157 428.095 374.157 428.095 374.157 426.924 375.115 426.924 375.115 426.924 375.115 426.924 375.221 426.924 375.221 426.924 375.221 427.031 375.115 427.137 375.115 427.35 375.115 427.457 375.115 427.669 375.221 427.882 375.328 430.65 376.924 430.65 376.924 430.65 376.924ZM432.566 375.328C435.333 373.838 435.333 373.838 435.333 373.838 435.12 372.88 435.12 372.88 435.12 372.88 435.014 372.88 435.014 372.88 435.014 372.88 435.12 373.199 435.014 373.412 435.014 373.518 434.908 373.731 434.695 373.944 434.375 374.05 433.63 374.476 433.63 374.476 433.63 374.476 433.524 374.476 433.524 374.583 433.417 374.476 433.417 374.476 433.311 374.476 433.204 374.37 432.672 373.412 432.672 373.412 432.672 373.412 432.672 373.305 432.672 373.199 432.672 373.199 432.672 373.199 432.672 373.199 432.779 373.092 433.417 372.773 433.417 372.773 433.417 372.773 433.63 372.667 433.843 372.56 433.95 372.56 434.056 372.667 434.162 372.773 434.269 372.88 434.375 372.88 434.375 372.88 434.375 372.88 433.737 371.709 433.737 371.709 433.737 371.709 433.737 371.815 433.737 371.815 433.737 371.815 433.737 372.028 433.843 372.134 433.737 372.241 433.737 372.347 433.524 372.454 433.311 372.56 432.672 372.986 432.672 372.986 432.672 372.986 432.672 372.986 432.566 372.986 432.566 372.986 432.566 372.986 432.459 372.986 432.459 372.88 431.927 372.028 431.927 372.028 431.927 372.028 431.927 371.922 431.927 371.815 431.927 371.815 431.927 371.815 432.034 371.709 432.034 371.709 432.885 371.176 432.885 371.176 432.885 371.176 433.098 371.07 433.311 371.07 433.417 371.07 433.524 371.07 433.737 371.176 433.843 371.389 433.95 371.283 433.95 371.283 433.95 371.283 433.524 370.644 433.524 370.644 433.524 370.644 430.756 372.134 430.756 372.134 430.756 372.134 430.863 372.241 430.863 372.241 430.863 372.241 430.969 372.134 431.182 372.134 431.289 372.134 431.395 372.134 431.395 372.241 431.501 372.454 432.672 374.583 432.672 374.583 432.672 374.583 432.779 374.689 432.885 374.902 432.779 374.902 432.779 375.008 432.672 375.115 432.459 375.221 432.566 375.328 432.566 375.328 432.566 375.328ZM436.291 371.07C436.291 371.176 436.398 371.176 436.398 371.176 436.398 371.176 436.504 371.176 436.504 371.176 436.93 371.07 437.143 370.857 437.356 370.644 437.462 370.431 437.462 370.218 437.356 369.899 437.249 369.686 437.143 369.58 436.93 369.473 436.717 369.473 436.398 369.473 436.078 369.58 435.972 369.686 435.866 369.686 435.866 369.793 435.866 369.793 435.866 369.899 435.866 370.006 436.291 371.07 436.291 371.07 436.291 371.07ZM436.078 373.412C437.569 372.773 437.569 372.773 437.569 372.773 437.569 372.667 437.569 372.667 437.569 372.667 437.462 372.667 437.462 372.667 437.462 372.667 437.356 372.773 437.143 372.773 437.036 372.667 437.036 372.667 436.93 372.56 436.824 372.347 436.504 371.496 436.504 371.496 436.504 371.496 436.504 371.496 436.504 371.496 436.504 371.389 436.504 371.389 436.504 371.389 436.611 371.389 436.93 371.283 436.93 371.283 436.93 371.283 437.249 371.389 437.569 371.602 437.888 371.815 438.207 371.922 438.42 372.134 438.74 372.241 439.591 371.922 439.591 371.922 439.591 371.922 439.485 371.815 439.485 371.815 439.485 371.815 439.378 371.922 439.165 371.815 438.846 371.709 438.527 371.602 438.101 371.283 437.462 370.857 437.675 370.751 437.782 370.538 437.888 370.325 437.994 370.112 437.994 369.899 437.888 369.686 437.782 369.367 437.569 369.26 437.356 369.154 437.036 369.154 436.717 369.154 436.398 369.26 434.695 370.006 434.695 370.006 434.695 370.006 434.695 370.112 434.695 370.112 434.695 370.112 434.908 370.006 435.014 370.006 435.12 370.006 435.227 370.006 435.333 370.112 435.44 370.325 436.291 372.56 436.291 372.56 436.291 372.56 436.398 372.773 436.398 372.88 436.398 372.986 436.291 373.092 436.185 373.199 436.078 373.199 435.972 373.305 435.972 373.305 435.972 373.305 436.078 373.412 436.078 373.412 436.078 373.412ZM440.23 371.815C440.336 371.815 440.336 371.815 440.336 371.815 440.336 371.709 440.336 371.709 440.336 371.709 440.443 371.602 440.443 371.602 440.443 371.602 440.549 371.602 440.655 371.602 440.762 371.602 440.975 371.602 441.188 371.602 441.294 371.602 441.613 371.496 441.933 371.283 442.039 371.07 442.252 370.857 442.252 370.644 442.252 370.325 442.146 370.112 442.039 369.899 441.933 369.793 441.826 369.686 441.613 369.58 441.294 369.473 440.655 369.26 440.655 369.26 440.655 369.26 440.443 369.154 440.23 369.154 440.123 369.048 440.017 368.941 440.017 368.835 439.91 368.728 439.91 368.515 439.91 368.409 440.017 368.303 440.123 368.196 440.23 368.09 440.443 368.09 440.655 367.983 440.868 367.983 441.081 368.196 441.188 368.303 441.401 368.409 441.613 368.728 441.72 368.728 441.72 368.728 441.72 368.728 441.294 367.664 441.294 367.664 441.294 367.664 441.188 367.664 441.188 367.664 441.188 367.664 441.188 367.77 441.188 367.77 441.188 367.77 441.188 367.877 441.188 367.877 441.081 367.877 441.081 367.877 440.975 367.877 440.868 367.877 440.655 367.877 440.443 367.877 440.336 367.877 440.017 367.983 439.804 368.09 439.697 368.303 439.485 368.515 439.485 368.728 439.485 369.048 439.591 369.26 439.697 369.367 439.804 369.473 439.91 369.58 440.123 369.686 440.443 369.793 441.081 370.006 441.081 370.006 441.081 370.006 441.294 370.112 441.401 370.218 441.507 370.218 441.613 370.325 441.72 370.431 441.72 370.644 441.72 370.751 441.72 370.964 441.613 371.07 441.507 371.283 441.401 371.389 441.188 371.389 440.975 371.389 440.762 371.389 440.549 371.283 440.336 371.176 440.123 370.964 439.91 370.644 439.804 370.644 439.804 370.644 439.804 370.644 440.23 371.815 440.23 371.815 440.23 371.815ZM443.104 371.07C444.7 370.857 444.7 370.857 444.7 370.857 444.7 370.751 444.7 370.751 444.7 370.751 444.487 370.857 444.381 370.751 444.275 370.751 444.168 370.644 444.168 370.538 444.168 370.325 443.849 367.983 443.849 367.983 443.849 367.983 443.742 367.77 443.849 367.664 443.849 367.557 443.955 367.451 444.062 367.451 444.275 367.345 444.275 367.238 444.275 367.238 444.275 367.238 442.678 367.451 442.678 367.451 442.678 367.451 442.678 367.557 442.678 367.557 442.678 367.557 442.891 367.557 442.997 367.557 443.104 367.664 443.21 367.664 443.21 367.877 443.21 367.983 443.529 370.431 443.529 370.431 443.529 370.431 443.529 370.644 443.529 370.751 443.423 370.857 443.423 370.964 443.317 370.964 443.104 370.964 443.104 371.07 443.104 371.07 443.104 371.07ZM446.084 370.751C447.787 370.751 447.787 370.751 447.787 370.751 447.787 370.644 447.787 370.644 447.787 370.644 447.574 370.538 447.361 370.538 447.361 370.538 447.255 370.431 447.255 370.325 447.255 370.006 447.255 367.451 447.255 367.451 447.255 367.451 447.255 367.345 447.255 367.345 447.255 367.345 447.255 367.238 447.361 367.238 447.468 367.238 447.894 367.238 448.106 367.345 448.213 367.451 448.426 367.557 448.426 367.664 448.532 367.983 448.639 367.983 448.639 367.983 448.639 367.983 448.639 367.025 448.639 367.025 448.639 367.025 445.339 367.025 445.339 367.025 445.339 367.025 445.232 367.983 445.232 367.983 445.232 367.983 445.339 367.983 445.339 367.983 445.339 367.983 445.445 367.664 445.445 367.557 445.552 367.451 445.765 367.345 445.978 367.238 446.297 367.238 446.403 367.238 446.403 367.238 446.403 367.238 446.51 367.238 446.616 367.238 446.616 367.238 446.616 367.345 446.616 367.345 446.616 367.451 446.616 370.006 446.616 370.006 446.616 370.006 446.616 370.218 446.616 370.431 446.51 370.538 446.51 370.538 446.297 370.644 446.084 370.644 446.084 370.751 446.084 370.751 446.084 370.751ZM450.235 370.751C451.832 370.964 451.832 370.964 451.832 370.964 451.832 370.857 451.832 370.857 451.832 370.857 451.619 370.857 451.513 370.751 451.406 370.751 451.406 370.644 451.406 370.538 451.406 370.325 451.513 369.26 451.513 369.26 451.513 369.26 452.683 367.983 452.683 367.983 452.683 367.983 452.79 367.77 452.896 367.664 453.003 367.664 453.109 367.557 453.216 367.557 453.322 367.557 453.322 367.451 453.322 367.451 453.322 367.451 452.151 367.345 452.151 367.345 452.151 367.345 452.151 367.451 452.151 367.451 452.151 367.451 452.258 367.451 452.364 367.451 452.471 367.557 452.471 367.557 452.577 367.557 452.471 367.664 452.471 367.664 452.471 367.664 452.471 367.77 452.471 367.77 452.364 367.877 452.258 367.983 451.406 369.048 451.406 369.048 451.406 369.048 450.768 367.664 450.768 367.664 450.768 367.664 450.768 367.664 450.768 367.664 450.661 367.664 450.661 367.557 450.661 367.451 450.661 367.451 450.661 367.345 450.661 367.345 450.768 367.345 450.768 367.345 450.98 367.345 451.087 367.345 451.087 367.238 451.087 367.238 451.087 367.238 449.384 367.025 449.384 367.025 449.384 367.025 449.384 367.132 449.384 367.132 449.384 367.132 449.49 367.132 449.597 367.132 449.703 367.238 449.81 367.238 449.916 367.345 449.916 367.451 450.874 369.26 450.874 369.26 450.874 369.26 450.768 370.218 450.768 370.218 450.768 370.218 450.768 370.431 450.768 370.538 450.661 370.644 450.555 370.644 450.448 370.644 450.235 370.644 450.235 370.644 450.235 370.644 450.235 370.644 450.235 370.751 450.235 370.751 450.235 370.751ZM455.664 369.793C455.557 370.325 455.451 370.751 455.557 371.176 455.77 371.496 455.983 371.709 456.303 371.922 456.728 372.028 457.048 371.922 457.367 371.709 457.686 371.496 457.899 371.176 458.112 370.644 458.218 370.218 458.325 369.793 458.112 369.367 458.006 369.048 457.793 368.728 457.473 368.622 457.048 368.515 456.728 368.515 456.409 368.728 456.09 368.941 455.877 369.367 455.664 369.793ZM455.132 369.686C454.919 370.218 454.919 370.644 455.132 371.07 455.345 371.602 455.77 371.922 456.303 372.028 456.835 372.241 457.26 372.241 457.686 372.028 458.218 371.815 458.431 371.389 458.644 370.857 458.857 370.325 458.857 369.793 458.644 369.367 458.431 368.941 458.006 368.622 457.473 368.409 456.941 368.303 456.515 368.303 456.09 368.515 455.557 368.728 455.238 369.048 455.132 369.686ZM458.644 372.773C460.134 373.625 460.134 373.625 460.134 373.625 460.241 373.518 460.241 373.518 460.241 373.518 460.028 373.412 459.922 373.305 459.815 373.199 459.815 373.092 459.815 372.986 459.922 372.773 460.347 371.922 460.347 371.922 460.347 371.922 460.454 371.815 460.454 371.815 460.454 371.815 460.56 371.815 460.56 371.815 460.56 371.815 461.092 372.028 461.092 372.028 461.092 372.028 461.305 372.134 461.412 372.241 461.518 372.347 461.518 372.454 461.518 372.667 461.412 372.88 461.518 372.88 461.518 372.88 461.518 372.88 462.05 371.709 462.05 371.709 462.05 371.709 461.944 371.709 461.944 371.709 461.944 371.709 461.944 371.922 461.838 371.922 461.731 372.028 461.625 372.028 461.412 371.922 461.092 371.815 460.667 371.602 460.667 371.602 460.667 371.602 460.667 371.602 460.56 371.602 460.56 371.496 460.56 371.496 460.56 371.496 460.667 371.389 461.092 370.538 461.092 370.538 461.092 370.538 461.092 370.431 461.199 370.325 461.199 370.325 461.305 370.325 461.412 370.325 461.518 370.431 462.157 370.751 462.157 370.751 462.157 370.751 462.37 370.857 462.583 370.964 462.583 371.176 462.689 371.283 462.689 371.496 462.583 371.709 462.689 371.709 462.689 371.709 462.689 371.709 463.008 370.964 463.008 370.964 463.008 370.964 460.347 369.58 460.347 369.58 460.347 369.58 460.241 369.686 460.241 369.686 460.241 369.686 460.454 369.793 460.56 369.899 460.56 370.006 460.667 370.006 460.56 370.218 460.56 370.325 459.389 372.56 459.389 372.56 459.389 372.56 459.283 372.667 459.283 372.773 459.176 372.88 459.07 372.88 458.964 372.773 458.751 372.773 458.644 372.773 458.644 372.773 458.644 372.773ZM463.328 375.434C464.711 376.392 464.711 376.392 464.711 376.392 464.818 376.286 464.818 376.286 464.818 376.286 464.605 376.179 464.499 376.073 464.499 375.966 464.499 375.86 464.499 375.754 464.711 375.541 466.202 373.412 466.202 373.412 466.202 373.412 466.202 373.305 466.202 373.305 466.308 373.305 466.308 373.305 466.308 373.305 466.415 373.412 466.84 373.625 466.947 373.838 467.053 374.05 467.053 374.157 467.053 374.37 466.84 374.583 466.947 374.689 466.947 374.689 466.947 374.689 467.479 373.944 467.479 373.944 467.479 373.944 464.818 372.028 464.818 372.028 464.818 372.028 464.286 372.773 464.286 372.773 464.286 372.773 464.286 372.773 464.286 372.773 464.286 372.773 464.499 372.56 464.711 372.454 464.818 372.454 465.031 372.454 465.244 372.56 465.563 372.773 465.563 372.773 465.563 372.773 465.563 372.773 465.669 372.88 465.776 372.88 465.776 372.986 465.776 372.986 465.776 372.986 465.669 373.092 464.179 375.221 464.179 375.221 464.179 375.221 464.073 375.434 463.966 375.541 463.86 375.541 463.754 375.541 463.647 375.541 463.434 375.328 463.328 375.434 463.328 375.434 463.328 375.434ZM465.669 377.244C468.011 379.373 468.011 379.373 468.011 379.373 468.863 378.947 468.863 378.947 468.863 378.947 468.756 378.84 468.756 378.84 468.756 378.84 468.543 378.947 468.331 379.053 468.118 378.947 467.905 378.947 467.692 378.84 467.479 378.627 466.84 377.989 466.84 377.989 466.84 377.989 466.734 377.882 466.734 377.882 466.734 377.776 466.734 377.776 466.84 377.669 466.84 377.563 467.585 376.818 467.585 376.818 467.585 376.818 467.692 376.711 467.692 376.711 467.798 376.711 467.798 376.711 467.798 376.711 467.905 376.818 468.437 377.244 468.437 377.244 468.437 377.244 468.65 377.457 468.756 377.669 468.756 377.776 468.756 377.882 468.65 377.989 468.543 378.095 468.65 378.202 468.65 378.202 468.65 378.202 469.501 377.35 469.501 377.35 469.501 377.35 469.395 377.244 469.395 377.244 469.395 377.244 469.289 377.35 469.182 377.457 469.076 377.457 468.969 377.457 468.756 377.35 468.543 377.137 468.011 376.605 468.011 376.605 468.011 376.605 468.011 376.605 467.905 376.499 467.905 376.499 467.905 376.499 467.905 376.392 468.011 376.392 468.65 375.647 468.65 375.647 468.65 375.647 468.756 375.541 468.863 375.541 468.863 375.541 468.863 375.541 468.969 375.541 469.076 375.647 469.714 376.286 469.714 376.286 469.714 376.286 469.927 376.499 470.034 376.605 470.034 376.711 470.034 376.818 470.034 377.031 469.821 377.244 469.927 377.35 469.927 377.35 469.927 377.35 470.459 376.711 470.459 376.711 470.459 376.711 468.224 374.583 468.224 374.583 468.224 374.583 468.118 374.583 468.118 374.583 468.118 374.583 468.224 374.796 468.331 374.902 468.331 375.008 468.331 375.115 468.331 375.221 468.118 375.328 466.521 377.137 466.521 377.137 466.521 377.137 466.308 377.244 466.202 377.35 466.202 377.35 466.095 377.35 465.882 377.244 465.776 377.137 465.669 377.244 465.669 377.244 465.669 377.244ZM471.417 382.14C471.098 382.14 470.779 382.14 470.566 382.034 470.353 381.927 470.14 381.714 469.927 381.501 469.714 381.182 469.608 380.863 469.714 380.437 469.821 380.118 470.034 379.692 470.353 379.373 470.779 379.053 471.204 378.947 471.63 378.947 472.056 378.947 472.375 379.053 472.588 379.479 472.801 379.692 472.908 379.905 472.908 380.224 472.908 380.437 472.801 380.756 472.588 381.076 472.695 381.076 472.695 381.076 472.695 381.076 473.546 380.331 473.546 380.331 473.546 380.331 473.44 380.224 473.44 380.224 473.44 380.224 473.44 380.224 473.333 380.224 473.333 380.224 473.333 380.224 473.227 380.224 473.227 380.224 473.227 380.118 473.12 380.011 473.014 379.798 472.908 379.585 472.801 379.373 472.695 379.266 472.375 378.84 471.95 378.521 471.417 378.521 470.885 378.415 470.459 378.627 470.034 378.947 469.501 379.266 469.289 379.692 469.289 380.224 469.182 380.65 469.395 381.182 469.714 381.608 469.927 381.821 470.14 382.034 470.459 382.14 470.672 382.246 470.992 382.353 471.311 382.246 471.417 382.14 471.417 382.14 471.417 382.14ZM470.885 383.204C471.737 384.588 471.737 384.588 471.737 384.588 471.843 384.482 471.843 384.482 471.843 384.482 471.737 384.375 471.737 384.162 471.737 384.162 471.737 384.056 471.843 383.95 471.95 383.843 472.908 383.311 472.908 383.311 472.908 383.311 472.908 383.311 472.908 383.311 473.014 383.311 473.014 383.311 473.014 383.311 473.12 383.417 473.866 384.695 473.866 384.695 473.866 384.695 473.866 384.801 473.866 384.801 473.866 384.801 473.866 384.908 473.866 384.908 473.759 384.908 472.908 385.44 472.908 385.44 472.908 385.44 472.801 385.546 472.588 385.546 472.588 385.546 472.482 385.546 472.375 385.44 472.269 385.227 472.162 385.227 472.162 385.227 472.162 385.227 473.014 386.717 473.014 386.717 473.014 386.717 473.014 386.611 473.014 386.611 473.014 386.611 472.908 386.504 472.908 386.291 472.908 386.185 473.014 386.078 473.014 386.078 473.227 385.972 475.356 384.695 475.356 384.695 475.356 384.695 475.462 384.588 475.675 384.588 475.675 384.588 475.782 384.695 475.888 384.801 475.994 384.908 476.101 384.908 476.101 384.908 476.101 384.908 475.249 383.417 475.249 383.417 475.249 383.417 475.249 383.524 475.249 383.524 475.249 383.524 475.356 383.737 475.356 383.843 475.356 383.95 475.249 384.056 475.249 384.162 475.036 384.162 474.291 384.695 474.291 384.695 474.291 384.695 474.185 384.695 474.185 384.695 474.078 384.695 474.078 384.695 474.078 384.695 474.078 384.588 473.227 383.311 473.227 383.311 473.227 383.311 473.227 383.204 473.227 383.204 473.227 383.204 473.227 383.098 473.227 383.098 473.333 383.098 474.078 382.566 474.078 382.566 474.078 382.566 474.291 382.459 474.398 382.459 474.504 382.459 474.611 382.566 474.717 382.672 474.824 382.779 474.93 382.779 474.93 382.779 474.93 382.779 474.078 381.289 474.078 381.289 474.078 381.289 473.972 381.395 473.972 381.395 473.972 381.395 474.078 381.608 474.078 381.714 474.078 381.821 474.078 381.927 473.972 382.034 473.866 382.14 471.737 383.311 471.737 383.311 471.737 383.311 471.524 383.417 471.417 383.417 471.311 383.417 471.204 383.417 471.098 383.311 470.992 383.098 470.885 383.204 470.885 383.204 470.885 383.204ZM474.078 387.675C476.207 387.036 476.207 387.036 476.207 387.036 474.185 390.23 474.185 390.23 474.185 390.23 474.291 390.336 474.291 390.336 474.291 390.336 477.165 389.378 477.165 389.378 477.165 389.378 477.378 389.378 477.485 389.378 477.485 389.378 477.591 389.485 477.697 389.591 477.804 389.804 477.91 389.697 477.91 389.697 477.91 389.697 477.485 388.527 477.485 388.527 477.485 388.527 477.378 388.527 477.378 388.527 477.378 388.527 477.378 388.74 477.378 388.846 477.378 388.952 477.378 389.059 477.272 389.059 477.059 389.165 475.143 389.804 475.143 389.804 475.143 389.804 476.952 386.93 476.952 386.93 476.952 386.93 476.633 386.078 476.633 386.078 476.633 386.078 476.527 386.078 476.527 386.078 476.527 386.078 476.633 386.185 476.633 386.291 476.527 386.398 476.527 386.504 476.42 386.611 476.42 386.717 473.972 387.462 473.972 387.462 473.972 387.462 473.759 387.569 473.653 387.569 473.546 387.462 473.44 387.462 473.44 387.356 473.333 387.143 473.227 387.143 473.227 387.143 473.227 387.143 473.653 388.42 473.653 388.42 473.653 388.42 473.759 388.42 473.759 388.42 473.759 388.42 473.653 388.207 473.653 387.994 473.653 387.888 473.759 387.888 473.866 387.782 474.078 387.675ZM476.527 391.72C475.994 391.826 475.569 392.039 475.356 392.252 475.036 392.571 474.93 392.891 475.036 393.21 475.036 393.636 475.249 393.955 475.675 394.062 475.994 394.275 476.42 394.275 476.952 394.168 477.485 394.062 477.804 393.955 478.123 393.636 478.336 393.423 478.443 392.997 478.336 392.678 478.336 392.252 478.123 392.039 477.804 391.826 477.378 391.72 476.952 391.613 476.527 391.72ZM476.42 391.081C475.782 391.188 475.356 391.401 475.143 391.826 474.824 392.252 474.717 392.784 474.824 393.317 474.93 393.849 475.143 394.275 475.569 394.594 475.994 394.807 476.42 394.913 477.059 394.807 477.591 394.7 478.017 394.487 478.336 394.062 478.549 393.636 478.655 393.21 478.549 392.678 478.443 392.039 478.23 391.613 477.804 391.401 477.378 391.081 476.952 390.975 476.42 391.081ZM475.249 395.765C475.356 398.852 475.356 398.852 475.356 398.852 476.314 399.064 476.314 399.064 476.314 399.064 476.314 398.958 476.314 398.958 476.314 398.958 475.994 398.852 475.888 398.745 475.675 398.532 475.569 398.426 475.569 398.213 475.569 397.894 475.569 397.255 475.569 397.255 475.569 397.255 475.569 397.148 475.569 397.042 475.569 396.936 475.569 396.936 475.675 396.936 475.888 396.936 478.336 396.829 478.336 396.829 478.336 396.829 478.549 396.829 478.655 396.936 478.762 396.936 478.762 397.042 478.868 397.148 478.868 397.361 478.868 397.361 478.868 397.361 478.868 397.361 478.975 397.361 478.975 397.361 478.975 397.361 478.975 395.765 478.975 395.765 478.975 395.765 478.868 395.765 478.868 395.765 478.868 395.765 478.868 395.978 478.762 396.084 478.762 396.19 478.655 396.19 478.549 396.297 478.336 396.297 475.994 396.297 475.994 396.297 475.994 396.297 475.782 396.297 475.569 396.297 475.462 396.19 475.462 396.19 475.356 395.978 475.356 395.765 475.356 395.765 475.356 395.765 475.356 395.765 475.249 395.765 475.249 395.765 475.249 395.765ZM477.059 400.342C476.527 400.342 476.101 400.342 475.782 400.555 475.462 400.768 475.249 401.087 475.143 401.406 475.143 401.832 475.249 402.151 475.569 402.364 475.782 402.683 476.207 402.79 476.74 402.896 477.272 403.003 477.697 402.896 478.017 402.683 478.336 402.471 478.549 402.258 478.549 401.832 478.655 401.513 478.549 401.193 478.23 400.874 477.91 400.661 477.591 400.448 477.059 400.342ZM477.165 399.81C476.527 399.703 476.101 399.81 475.675 400.129 475.249 400.448 475.036 400.874 475.036 401.406 474.93 401.938 475.036 402.471 475.356 402.79 475.675 403.216 476.101 403.429 476.633 403.535 477.272 403.535 477.697 403.429 478.123 403.216 478.443 402.896 478.762 402.471 478.762 401.832 478.868 401.3 478.762 400.874 478.443 400.448 478.123 400.022 477.697 399.81 477.165 399.81ZM474.078 407.473C475.143 407.793 475.143 407.793 475.143 407.793 475.249 407.793 475.356 407.899 475.462 408.006 475.462 408.006 475.462 408.112 475.356 408.325 475.462 408.325 475.462 408.325 475.462 408.325 475.888 406.835 475.888 406.835 475.888 406.835 475.782 406.835 475.782 406.835 475.782 406.835 475.782 407.048 475.675 407.154 475.569 407.26 475.569 407.26 475.462 407.26 475.249 407.26 474.291 406.941 474.291 406.941 474.291 406.941 474.185 406.835 474.185 406.728 474.185 406.515 474.185 406.409 474.185 406.196 474.185 406.09 474.398 405.664 474.611 405.345 474.93 405.132 475.356 405.025 475.782 405.025 476.314 405.132 476.74 405.238 477.165 405.557 477.378 405.877 477.591 406.196 477.591 406.515 477.485 406.941 477.378 407.26 477.272 407.473 477.059 407.686 476.846 407.793 476.633 407.899 476.207 407.899 476.207 408.006 476.207 408.006 476.207 408.006 477.378 408.218 477.378 408.218 477.378 408.218 477.378 408.218 477.378 408.218 477.378 408.218 477.272 408.112 477.272 408.112 477.272 408.112 477.165 408.006 477.165 408.006 477.165 408.006 477.165 407.899 477.272 407.793 477.378 407.58 477.591 407.473 477.697 407.26 477.697 406.941 477.91 406.409 477.804 405.877 477.591 405.451 477.378 405.025 476.952 404.706 476.42 404.493 475.888 404.387 475.356 404.387 474.93 404.706 474.504 404.919 474.185 405.345 474.078 405.877 473.972 406.196 473.972 406.409 473.972 406.728 473.972 406.941 473.972 407.26 474.078 407.473ZM473.014 408.857C472.375 410.347 472.375 410.347 472.375 410.347 472.482 410.454 472.482 410.454 472.482 410.454 472.588 410.241 472.695 410.134 472.695 410.134 472.801 410.028 472.908 410.028 473.12 410.134 474.078 410.56 474.078 410.56 474.078 410.56 475.036 412.05 475.036 412.05 475.036 412.05 475.143 412.263 475.249 412.37 475.249 412.476 475.249 412.583 475.249 412.689 475.249 412.796 475.356 412.796 475.356 412.796 475.356 412.796 475.782 411.731 475.782 411.731 475.782 411.731 475.675 411.731 475.675 411.731 475.675 411.731 475.569 411.838 475.569 411.944 475.462 411.944 475.462 412.05 475.356 412.05 475.356 412.05 475.356 411.944 475.249 411.944 475.249 411.944 475.249 411.944 475.143 411.838 475.143 411.731 474.398 410.56 474.398 410.56 474.398 410.56 475.888 410.241 475.888 410.241 475.888 410.241 475.888 410.241 475.888 410.241 475.888 410.241 475.994 410.241 476.101 410.241 476.101 410.241 476.207 410.347 476.207 410.347 476.207 410.454 476.207 410.454 476.207 410.56 476.101 410.773 476.207 410.773 476.207 410.773 476.207 410.773 476.846 409.283 476.846 409.283 476.846 409.283 476.74 409.176 476.74 409.176 476.74 409.176 476.74 409.283 476.633 409.389 476.633 409.496 476.527 409.496 476.42 409.602 476.314 409.602 474.291 410.028 474.291 410.028 474.291 410.028 473.333 409.602 473.333 409.602 473.333 409.602 473.227 409.496 473.12 409.496 473.12 409.389 473.014 409.283 473.12 409.07 473.12 408.964 473.12 408.964 473.12 408.964 473.12 408.964L473.014 408.857Z" fill="#0090BD" fill-rule="evenodd"/></g></svg>